<svg xmlns="http://www.w3.org/2000/svg" viewBox="0 0 601.49 374"><defs><style>.cls-1{fill:#cff;}.cls-2{fill:#3cf;}</style></defs><g id="Layer_2" data-name="Layer 2"><g id="Layer_1-2" data-name="Layer 1"><path class="cls-1" d="M29.74,246.61a268.5,268.5,0,0,1,54.5,30.5c16,11.61,20.86,18,39,31,4,2.89,24.21,17.21,47,28,30.09,14.25,40.51,10.89,108.5,25.5,51.06,11,53.82,14.72,65,11,43.77-14.58,71.9-95.59,44.5-125.5-20.66-22.55-68.93-11.75-74.5-10.5-27.05,6-26.92,16.3-50.5,21.5-34.88,7.69-76.69-5.58-103-30-22-20.44-18.65-35.2-42.5-48.5-21.27-11.85-42.72-10.25-53-10-6.57.16-57.27,2-64,28C-3.27,213.09,9.43,232.73,29.74,246.61Z"/><path class="cls-2" d="M207.74,92.61c15.44,13.16,39.31,29.41,71,35,37.58,6.63,45-8.4,74-2,46.2,10.19,49.95,58,104,82,12.28,5.46,36.4,16.4,65,11,46.9-8.86,87.46-57.82,78.5-85.5-7.54-23.28-43.15-10-108.5-50.5-21.34-13.21-53.18-36.68-66.5-46.5-32.48-23.94-32.85-26.1-43-30-25.44-9.78-49.29-6.33-93,0a408.9,408.9,0,0,0-46.5,9.5c-39.91,10.19-60.65,15.06-64,28C174.73,59.09,187.43,78.73,207.74,92.61Z"/></g></g></svg>