<svg xmlns="http://www.w3.org/2000/svg" xmlns:xlink="http://www.w3.org/1999/xlink" viewBox="0 0 379.24 636.72"><defs><style>.cls-1,.cls-12{fill:#960;}.cls-10,.cls-2{fill:#fff;}.cls-3{fill:#c93;}.cls-4{opacity:0.5;}.cls-5{fill:#ccc;}.cls-6{fill:url(#linear-gradient);}.cls-7{fill:url(#linear-gradient-2);}.cls-8{fill:#300;}.cls-9{opacity:0.82;}.cls-10{opacity:0.11;}.cls-11{fill:#f90;}.cls-12{stroke:#fff;stroke-miterlimit:10;}</style><linearGradient id="linear-gradient" x1="1008.69" y1="-746.38" x2="1068.69" y2="-746.38" gradientTransform="translate(554.83 1446.99) rotate(-67.8)" gradientUnits="userSpaceOnUse"><stop offset="0" stop-color="#600"/><stop offset="0.27" stop-color="#5d0000"/><stop offset="0.72" stop-color="#430000"/><stop offset="0.96" stop-color="#300"/></linearGradient><linearGradient id="linear-gradient-2" x1="756.07" y1="-697.84" x2="816.07" y2="-697.84" gradientTransform="translate(371.26 1180.29) rotate(-60.58)" xlink:href="#linear-gradient"/></defs><g id="Layer_2" data-name="Layer 2"><g id="Layer_1-2" data-name="Layer 1"><path class="cls-1" d="M330.07,414.26c2.74,70.15-48.88,120.12-59.83,130.18-13.1,12-45.55,41.87-94.74,44.69-58.27,3.33-99.21-33.58-115.18-48C47.58,529.67,8.1,494.08,1.12,440.54-8.84,364.26,48.31,260.21,151.58,252,252.92,243.87,326.92,333.8,330.07,414.26Z"/><path class="cls-1" d="M163.07,265.17a87.29,87.29,0,0,1-34,4.89c-27.62-1.82-44.31-18.09-50.72-25.28"/><path class="cls-1" d="M231.38,324.31c-2.71,4.45-42.91-8.65-64.45-40.72-3.35-5-8-11.95-6.42-13.56C165.7,264.8,235.33,317.84,231.38,324.31Z"/><path class="cls-1" d="M347.58,259.35C330,300.2,285.94,330.52,246.52,327.76c-28.3-2-30.38-19.33-86.42-48.1S90,260,69.93,238.15C43.13,209.08,33.35,155.26,56,112.28,84.49,58.38,150.26,47.55,189,55.09c18.23,3.55,33.78,11.72,64.68,27.94,28.69,15.06,43.78,23,57.17,35.4C339.66,145.17,371.56,203.79,347.58,259.35Z"/><ellipse class="cls-2" cx="260.26" cy="204.18" rx="58.5" ry="60.5" transform="translate(-39.26 344.59) rotate(-63.23)"/><path class="cls-3" d="M328.77,242.66c-27,56.87-114.59,55.49-142.2,39.12-2.32-1.37-11.42-7.14-25.59-15.11-18.27-10.28-31.33-16.55-34.15-18C98.22,234,52.39,166.93,80.56,117.46c17.65-31,60.43-48.26,90.92-38.87,25.83,8,24.5,29.42,56.34,43.24,33.67,14.61,50.34-2.79,73.59,10.49C331.52,149.53,347.26,203.7,328.77,242.66Z"/><path class="cls-2" d="M143.91,203.18a51,51,0,0,1-23.16-5.53A51.51,51.51,0,0,1,144,100.16a51.51,51.51,0,0,1-.08,103Z"/><path d="M144,99.66v1h0a50.42,50.42,0,0,1,22.93,5.48,51,51,0,0,1-23,96.54,51,51,0,0,1,.08-102v-1m0,0a52,52,0,1,0,23.38,5.58A52,52,0,0,0,144,99.66Z"/><g class="cls-4"><path class="cls-2" d="M272.15,275c-13.14,0-26-2.85-36.26-8-27.26-13.76-39.23-45.29-40.5-48.84a87.41,87.41,0,0,1-3.79-14.2l-.15-.85-.66.56a67.18,67.18,0,0,1-13.51,8.79,73.41,73.41,0,0,1-32,7.11,78.64,78.64,0,0,1-36.63-8.92c-15-8.05-28.52-22.67-36.14-39.1-8.52-18.37-8.92-37-1.11-52.49C81.81,98.33,104.28,85.5,130,85.5a82.93,82.93,0,0,1,37.15,9c8.07,4.07,23.33,18.42,31.24,27.22,4.1,4.57,7.93,9.48,8,9.53,3.16,4.07,6.17,8.33,8.94,12.66l.18.27.32,0c4.52-.66,9.13-1.13,13.69-1.41,0,0,4.54-.28,10.52-.28,3.32,0,6.45.09,9.3.26,5,.29,30.94,2.12,44.65,9,37.17,18.75,54.38,59.83,38.36,91.59-10,19.79-32.49,31.6-60.2,31.6Z"/><path d="M130,86A82.53,82.53,0,0,1,167,95c8,4,23.2,18.34,31.08,27.1,4.06,4.52,7.8,9.31,8,9.51h0c3.15,4.06,6.15,8.3,8.92,12.62l.35.54.64-.09c4.5-.65,9.1-1.12,13.65-1.4,0,0,4.55-.28,10.49-.28,3.31,0,6.43.09,9.28.26,5,.29,30.82,2.11,44.44,9,17.91,9,31.74,23.49,38.94,40.7s6.89,35-.8,50.22c-5.19,10.3-13.59,18.31-24.94,23.82a80.38,80.38,0,0,1-34.81,7.51c-13.06,0-25.86-2.83-36-8-27.09-13.68-39-45-40.25-48.56a87.57,87.57,0,0,1-3.77-14.13l-.3-1.69-1.33,1.1a65.87,65.87,0,0,1-13.4,8.73A72.84,72.84,0,0,1,145.27,219a78.14,78.14,0,0,1-36.39-8.86C94,202.14,80.53,187.6,73,171.27,64.5,153,64.1,134.55,71.84,119.22,82.17,98.72,104.47,86,130,86m0-1c-25.14,0-48.16,12.1-59.09,33.77C53.73,152.88,78.6,195,108.41,211a78.81,78.81,0,0,0,36.86,9,73.46,73.46,0,0,0,32.22-7.17A66.61,66.61,0,0,0,191.11,204a87.32,87.32,0,0,0,3.81,14.28c1,2.77,13.08,35.15,40.74,49.12,10.37,5.23,23.32,8.07,36.49,8.07,24.33,0,49.45-9.68,60.64-31.88,16.17-32-1.1-73.36-38.58-92.26-12.25-6.18-34.36-8.48-44.84-9.09-3.22-.19-6.44-.26-9.33-.26-6,0-10.55.28-10.55.28-5.36.33-10,.87-13.74,1.41-2.32-3.62-5.29-8-9-12.69,0,0-3.82-4.93-8-9.57-8.09-9-23.32-23.26-31.38-27.33A83.19,83.19,0,0,0,130,85Z"/></g><path class="cls-2" d="M255.53,255a51.51,51.51,0,1,1,23.23-97.5A51.51,51.51,0,0,1,255.53,255Z"/><path d="M255.61,151.49v1h0a51,51,0,1,1-23,96.54,51,51,0,0,1,23-96.54v-1m0,0A52,52,0,1,0,279,157.07a52,52,0,0,0-23.38-5.58Z"/><path class="cls-5" d="M255.54,239a35.09,35.09,0,0,1-16-3.81,35.5,35.5,0,0,1,16-67.2,35.16,35.16,0,0,1,16,3.81,35.51,35.51,0,0,1-16,67.2Z"/><path d="M255.6,167.49v1h0a35,35,0,1,1-31.28,19.24,34.55,34.55,0,0,1,31.28-19.24v-1m0,0a36,36,0,1,0,16.18,3.86,36,36,0,0,0-16.18-3.86Z"/><path class="cls-5" d="M150.18,188.1a35.1,35.1,0,0,1-16-3.82,35.5,35.5,0,0,1,16-67.2,35.51,35.51,0,0,1,0,71Z"/><path d="M150.24,116.58v1h0A35,35,0,1,1,119,136.82a34.58,34.58,0,0,1,31.28-19.24v-1m0,0a36,36,0,1,0,16.19,3.87,36,36,0,0,0-16.19-3.87Z"/><path class="cls-6" d="M256.23,233.28A30,30,0,1,1,284,214.61,29.87,29.87,0,0,1,256.23,233.28Z"/><path d="M256.25,173.77h0a29.51,29.51,0,1,1-27.32,18.36,29.48,29.48,0,0,1,27.32-18.36m0-1A30.52,30.52,0,1,0,267.76,175a30.5,30.5,0,0,0-11.51-2.27Z"/><path class="cls-7" d="M149.5,182.81a30,30,0,1,1,26.16-15.27A30,30,0,0,1,149.5,182.81Z"/><path d="M149.56,122.3v1h0a29.51,29.51,0,1,1-25.72,15,29.53,29.53,0,0,1,25.72-15v-1m0,0a30.52,30.52,0,1,0,14.95,3.94,30.48,30.48,0,0,0-14.95-3.94Z"/><path d="M255.55,220a16.5,16.5,0,1,1,14.75-9.07A16.37,16.37,0,0,1,255.55,220Z"/><path class="cls-8" d="M255.58,186.49v1h0a15.83,15.83,0,0,1,7.19,1.72,16,16,0,0,1-7.22,30.29,16,16,0,0,1,0-32v-1m0,0a17,17,0,1,0,7.64,1.83,17,17,0,0,0-7.64-1.83Z"/><path d="M150.2,166.85a16.5,16.5,0,1,1,14.74-9.07A16.28,16.28,0,0,1,150.2,166.85Z"/><path class="cls-8" d="M150.23,133.35v1h0a15.83,15.83,0,0,1,7.19,1.72,16,16,0,0,1-7.22,30.29,16,16,0,0,1,0-32v-1m0,0a17,17,0,1,0,7.64,1.82,17,17,0,0,0-7.64-1.82Z"/><path class="cls-2" d="M158.08,144.85a8.91,8.91,0,0,1-4-1,9,9,0,0,1,4.06-17,9,9,0,0,1,0,18Z"/><path class="cls-8" d="M158.1,127.34h0a8.51,8.51,0,0,1,7.58,12.33,8.46,8.46,0,0,1-7.6,4.68,8.37,8.37,0,0,1-3.82-.92,8.5,8.5,0,0,1,3.84-16.09m0-1a9.5,9.5,0,1,0,4.27,1,9.49,9.49,0,0,0-4.27-1Z"/><path class="cls-2" d="M263.45,193.52a8.91,8.91,0,0,1-4-1,9,9,0,0,1,4.06-17,8.9,8.9,0,0,1,4,1,9,9,0,0,1-4.06,17Z"/><path class="cls-8" d="M263.47,176h0a8.36,8.36,0,0,1,3.82.91,8.51,8.51,0,1,1-3.82-.91m0-1a9.5,9.5,0,1,0,4.27,1,9.34,9.34,0,0,0-4.27-1Z"/><path class="cls-2" d="M139.16,181.58a6,6,0,0,1-5.35-8.7,6,6,0,0,1,5.36-3.3,6,6,0,0,1,5.35,8.7A6,6,0,0,1,139.16,181.58Z"/><path class="cls-8" d="M139.17,170.08h0a5.51,5.51,0,1,1-4.91,3,5.45,5.45,0,0,1,4.91-3m0-1a6.5,6.5,0,0,0-2.93,12.3,6.4,6.4,0,0,0,2.92.7,6.5,6.5,0,0,0,2.93-12.3,6.37,6.37,0,0,0-2.92-.7Z"/><path class="cls-2" d="M249.47,224.91a6,6,0,1,1,5.36-3.3A5.94,5.94,0,0,1,249.47,224.91Z"/><path class="cls-8" d="M249.48,213.4h0A5.45,5.45,0,0,1,252,214a5.5,5.5,0,0,1-2.48,10.42,5.36,5.36,0,0,1-2.47-.6,5.5,5.5,0,0,1,2.48-10.41m0-1a6.51,6.51,0,1,0,2.92.7,6.49,6.49,0,0,0-2.92-.7Z"/><g class="cls-9"><path class="cls-10" d="M232.46,227.91c6.75,4.45,14,9,22.4,9,11.47,0,20.38-8.21,28.15-15.64.14-.14-1.39-.49-1.33-.48-.28-.06-1.12-.37-1.4-.11-5.58,5.12-11.68,10.77-19.18,12.78-6.6,1.77-12.55,1.15-19.11-2a78.78,78.78,0,0,1-10-6.1c-.35-.24-.08.73-.09.71C232,226.42,232.09,227.67,232.46,227.91Z"/><path class="cls-10" d="M232.39,230c6.81,4.48,14.11,9,22.56,9,11.69-.08,20.66-8.47,28.52-16.1.17-.17-.84-1-1.09-.72a101.58,101.58,0,0,1-9.06,7.91,35.43,35.43,0,0,1-10.86,5.79A27.4,27.4,0,0,1,242.31,234a77.22,77.22,0,0,1-10.14-6.1C231.94,227.75,232,229.74,232.39,230Z"/><path class="cls-10" d="M232,226.32c7.84,5.18,16.3,10.31,26.1,8.7,9.4-1.56,16.79-8.34,23.51-14.57,0,0-3.22-.84-3.18-.83-.4-.08-2.77-.85-3.26-.45-6,4.85-12.65,10-20.68,10.59-9,.69-16.89-4.67-23.89-9.67a1,1,0,0,0,0,.69c.16.83.33,1.65.52,2.47C231.18,223.75,231.38,225.94,232,226.32Z"/><path class="cls-10" d="M231.83,227.56c7.88,5.19,16.38,10.29,26.22,8.59,9.47-1.64,16.86-8.55,23.6-14.88a17.8,17.8,0,0,0-2.31-.85c-.29-.08-2-.8-2.42-.49-6.25,5.27-13.17,10.83-21.66,11.6-9.19.84-17.18-4.39-24.34-9.46,0,0,.27,2.78.27,2.78C231.26,225.27,231.33,227.23,231.83,227.56Z"/><path class="cls-10" d="M232.57,227.84c5.6,3.65,11.43,7.4,18.15,8.52a24.76,24.76,0,0,0,12.45-1.1c7.93-2.92,14.07-8.57,20.07-14.35.24-.23-1.62-.68-1.88-.42q-2.76,2.7-5.68,5.24-14.34,13.13-29.51,8.06c-5-1.66-9.46-4.59-13.84-7.49C232.08,226.14,232.28,227.65,232.57,227.84Z"/><path class="cls-10" d="M231.87,226c7.83,5.2,16.28,10.32,26.1,8.71,9.43-1.54,16.84-8.34,23.58-14.6,0,0-2.65-.55-2.61-.54-.41-.06-2.22-.55-2.67-.17-6.13,5.13-12.91,10.56-21.21,11.31-9.15.83-17.12-4.48-24.25-9.5,0,0,.34,2.43.34,2.44C231.25,224.12,231.38,225.71,231.87,226Z"/><path class="cls-10" d="M232.06,228.43c7.9,5.21,16.43,10.33,26.3,8.56,9.49-1.7,16.87-8.69,23.6-15.06a18.08,18.08,0,0,0-2.46-1.12c-.23-.08-2.22-1.06-2.59-.76-6.26,5.24-13.18,10.78-21.64,11.54-9.2.83-17.18-4.4-24.33-9.49.06,0,.37,3.16.38,3.2C231.4,225.75,231.51,228.06,232.06,228.43Z"/><path class="cls-10" d="M232,227.16c4.46,2.89,9,5.87,14.14,7.5a25.73,25.73,0,0,0,14.52.4c8.8-2.32,15.61-8.74,22-14.92.25-.24-1.37-.52-1.61-.28-7.89,7.65-16.94,16-29.15,14.76-7.47-.76-13.78-4.66-20-8.65C231.62,225.78,231.75,227,232,227.16Z"/><path class="cls-10" d="M232.09,227.24c7.87,5.18,16.36,10.31,26.19,8.62,9.42-1.63,16.76-8.5,23.47-14.78.05-.05-3.35-1.19-3.29-1.18-.31-.09-2.94-1.18-3.4-.81-6,4.86-12.61,10-20.62,10.64-9,.7-16.89-4.66-23.89-9.66a1.23,1.23,0,0,0,0,.78c.17,1,.36,1.9.57,2.84C231.25,224.21,231.47,226.83,232.09,227.24Z"/><path class="cls-10" d="M231.83,227c6.7,4.38,13.83,8.9,22.15,8.92,11.36,0,20.21-8,27.94-15.34.12-.11-1.66-.43-1.59-.42-.34,0-1.33-.34-1.65,0-5.47,4.9-11.46,10.29-18.78,12.11a24,24,0,0,1-11.39.3c-6.31-1.51-11.85-5-17.16-8.65-.35-.24-.08,1.07-.06,1.19C231.37,225.51,231.38,226.69,231.83,227Z"/><path class="cls-10" d="M232.37,227.32c5.12,3.16,10.32,6.39,16.24,7.81a24.93,24.93,0,0,0,14.53-.7c7.87-3,14-8.66,19.94-14.45.25-.24-1.29-.5-1.53-.27-2.27,2.23-4.55,4.42-7,6.48a19.07,19.07,0,0,1-10.75,5,15.27,15.27,0,0,1-13.39,3.37c-6.61-1.25-12.41-4.73-18.12-8.14C232,226.25,232.16,227.19,232.37,227.32Z"/><path class="cls-10" d="M231.85,227.81c7.89,5.19,16.39,10.31,26.24,8.55,9.41-1.68,16.75-8.6,23.44-14.92a27.34,27.34,0,0,0-2.74-1.19c-.24-.08-2.48-1.15-2.87-.83-6.09,5-12.84,10.41-21.05,11.12-9.12.79-17-4.51-24.12-9.53.07.05.36,3.39.36,3.43C231.19,224.89,231.28,227.43,231.85,227.81Z"/></g><g class="cls-9"><path class="cls-10" d="M118.69,143.6c-1.25,8-2.36,16.48,1.15,24.11,4.79,10.4,15.91,15.1,25.89,19,.29.12,0-2.13-.43-2.29a93.85,93.85,0,0,1-10.64-4.89,34.06,34.06,0,0,1-9.28-7.2,27.71,27.71,0,0,1-6.24-18.32,78.73,78.73,0,0,1,1.34-11.65C120.52,142.18,118.76,143.14,118.69,143.6Z"/><path class="cls-10" d="M118,145.56c-1.32,9.5-2.27,19.49,3.52,27.78s15.39,12.06,24.34,15.54c.08,0,.28-1.61-.16-1.78a107.51,107.51,0,0,1-10.84-4.75c-3.35-1.78-7.34-4.2-9.84-7.12l-6-10.55a29.64,29.64,0,0,1-1-8.06,93.11,93.11,0,0,1,1.06-11.9C119.09,144.43,118,145.24,118,145.56Z"/><path class="cls-10" d="M119.35,142.54c-1.44,9.27-2.59,19.09,3,27.31,5.33,7.84,14.55,11.69,23,15.19.07,0-.39-3.12-.38-3.07-.07-.34-.24-2.74-.76-3-6.88-3.44-14.31-7.34-18.2-14.35-4.39-7.91-2.79-17.25-1.16-25.67,0,.06-2.82,1.62-2.84,1.63C121.62,140.83,119.45,141.89,119.35,142.54Z"/><path class="cls-10" d="M118.65,143.54c-1.44,9.33-2.55,19.19,3.09,27.44,5.43,8,14.81,11.82,23.39,15.32a23.61,23.61,0,0,0-.25-2.68c0-.3-.16-2.4-.63-2.62-7.37-3.48-15.3-7.43-19.53-14.81-4.6-8-3.15-17.46-1.52-26.08,0,0-2.36,1.54-2.38,1.56C120.43,142,118.75,142.9,118.65,143.54Z"/><path class="cls-10" d="M118.32,143.34c-1.18,8-2.27,16.59,1.31,24.23,4.9,10.49,16.18,15.16,26.29,19.11.39.16.2-1.22,0-1.32-4.89-1.91-10-3.91-14.37-6.8-3.24-2.11-6.83-5-8.87-8.4l-3.36-7.48a30.06,30.06,0,0,1-.93-8.12,89.21,89.21,0,0,1,1.18-11.86C119.59,142.35,118.36,143,118.32,143.34Z"/><path class="cls-10" d="M119.16,142.24c-1.47,9.29-2.59,19.1,3,27.33,5.35,7.86,14.58,11.73,23,15.23a18.82,18.82,0,0,0-.25-2.38c-.06-.32-.18-2.1-.63-2.31-7.18-3.48-14.93-7.41-19-14.63-4.53-8-3-17.37-1.43-25.92,0,0-2.48,1.2-2.45,1.18C121.1,140.92,119.24,141.7,119.16,142.24Z"/><path class="cls-10" d="M118.79,144.24c-1.44,9.36-2.55,19.25,3.08,27.53,5.45,8,14.88,11.89,23.51,15.39.08,0-.37-3.12-.36-3.06-.05-.31-.22-2.75-.72-3-7.38-3.45-15.32-7.36-19.57-14.71-4.63-8-3.17-17.51-1.54-26.14a.84.84,0,0,0-.56.3c-.6.51-1.19,1-1.77,1.55C120.44,142.5,118.9,143.53,118.79,144.24Z"/><path class="cls-10" d="M118,142.41c-1.22,8-2.33,16.5,1.14,24.14,4.81,10.61,16.05,15.37,26.2,19.39.4.15.32-1,.11-1.09-7-2.82-13.86-5.81-19.33-11.17s-7.9-11.86-7.74-20.28a82.92,82.92,0,0,1,1.3-11.64C119.73,141.39,118,142.08,118,142.41Z"/><path class="cls-10" d="M119.29,143.23c-1.44,9.31-2.58,19.16,3,27.41,5.36,7.92,14.66,11.78,23.16,15.29,0,0-.45-3.55-.44-3.5-.07-.35-.27-3.15-.82-3.42-6.92-3.44-14.36-7.32-18.25-14.36-4.39-8-2.78-17.32-1.14-25.77a1.11,1.11,0,0,0-.67.34c-.75.55-1.48,1.11-2.21,1.69C121.5,141.25,119.41,142.49,119.29,143.23Z"/><path class="cls-10" d="M118.41,142.81c-1.4,9.35-2.48,19.19,3.14,27.45,5.46,8,14.87,11.94,23.51,15.45.19.08-.11-1.62-.1-1.56-.05-.29-.11-1.33-.48-1.5-7.86-3.54-16.25-7.58-20.81-15.33-4.77-8.11-3.48-17.68-1.92-26.5a13.6,13.6,0,0,0-1.77.84C119.69,141.83,118.48,142.35,118.41,142.81Z"/><path class="cls-10" d="M118,142.44c-1.15,8.07-2.28,16.66,1.32,24.31,4.94,10.48,16.29,15.16,26.4,19.12.38.15.33-.81.13-.89-8.11-3.19-16.67-6.71-22.24-13.73-4-5-5.65-10.21-5.58-17.23a92.86,92.86,0,0,1,1.16-12C119.23,141.64,118,142.18,118,142.44Z"/><path class="cls-10" d="M118.78,143.77c-1.44,9.34-2.57,19.23,3.07,27.49,5.43,7.94,14.8,11.78,23.37,15.26.07,0-.28-3.38-.27-3.31,0-.3-.14-3-.65-3.26-7.13-3.44-14.82-7.33-18.89-14.5-4.52-8-3-17.43-1.35-26a1.12,1.12,0,0,0-.65.34c-.71.54-1.42,1.09-2.11,1.66C120.87,141.83,118.9,143,118.78,143.77Z"/></g><path class="cls-11" d="M166.45,223.36c1.31-.27,28.07-5.47,26.71,9.21-.21,2.31-1.21,5.72-13.78,25.1-15.57,24-23.36,36-26.9,35.58-5.69-.74-1.71-25.05,2.9-41.28A173,173,0,0,1,166.45,223.36Z"/><path class="cls-12" d="M179,55.47c.8-1.43-2.33-7.16-8.56-18.54-2.1-3.83-4-7.2-4.41-7.94-1.47-2.62-2.7-4.79-3.55-6.28A27.21,27.21,0,0,0,158,29.85a28.52,28.52,0,0,0-1.8,6.18c-.36,2.25-2.05,13,4.77,18.77C166.71,59.58,176.89,59.28,179,55.47Z"/><path class="cls-12" d="M315.41,122.62c.82-1.76,6.59-3.77,18.06-7.74,3.87-1.33,7.28-2.47,8-2.73,2.65-.88,4.85-1.6,6.37-2.09a47.47,47.47,0,0,1-3.93,9.16,49.61,49.61,0,0,1-4.2,6.27c-1.65,2.05-9.58,11.87-16.78,10.94C317,135.65,313.22,127.32,315.41,122.62Z"/><path class="cls-12" d="M324.93,141.51c2.2-4.84,10.43-3.31,24.68-7A100.92,100.92,0,0,0,378.18,122,71.64,71.64,0,0,1,360,148.35c-6.57,5.91-14.17,12.75-22.4,11.06C328.91,157.63,322.45,147,324.93,141.51Z"/><path class="cls-12" d="M157.25,54.25c2.44-4.36-3.93-10-9.94-23.32a97.38,97.38,0,0,1-8-29.43,62.64,62.64,0,0,0-9.47,28.71c-.57,8.42-1.22,18.15,5.28,23.75C142,59.87,154.49,59.17,157.25,54.25Z"/><ellipse class="cls-3" cx="164.08" cy="421" rx="106" ry="117.5" transform="translate(-33.01 14.4) rotate(-4.57)"/><path class="cls-11" d="M74.89,580.69c-5.15,10-3.43,20.39-2.15,28.15,1.58,9.5,5.86,21.48,9.23,21.16,2-.18,2.69-4.55,7.83-26.9,3.29-14.25,4.44-18.75,5.33-18.67,1.39.14,1.88,11.14,1.83,17.73,0,5.41-.46,9.83,1.1,16.1.84,3.37,1.76,7.07,3.5,7.27,1.21.14,3.15-1.39,9.13-16.79,5.84-15,6.87-21,8.8-20.89,2.21.1,4.43,8,4.15,15.49-.41,11-6,16.94-4.38,18.35,1.9,1.6,12.21-3.53,15.78-12.69,3.25-8.32-.37-16.63-4.81-26.87-4.88-11.26-7.33-16.89-13-19.89C104.41,555.5,82.8,565.24,74.89,580.69Z"/><path class="cls-11" d="M191.79,587.4c-5.14,10-3.43,20.39-2.14,28.15,1.57,9.5,5.86,21.48,9.22,21.16,2-.18,2.7-4.55,7.84-26.89,3.28-14.26,4.44-18.76,5.33-18.67,1.38.13,1.88,11.13,1.83,17.72,0,5.41-.46,9.83,1.1,16.1.84,3.38,1.76,7.07,3.5,7.27,1.21.14,3.14-1.39,9.13-16.78,5.83-15,6.86-21,8.8-20.9,2.2.1,4.43,8,4.15,15.49-.41,11-6.06,16.94-4.38,18.35,1.9,1.6,12.2-3.53,15.78-12.69,3.24-8.32-.38-16.63-4.82-26.87-4.88-11.26-7.32-16.89-13-19.89C221.32,562.21,199.71,572,191.79,587.4Z"/></g></g></svg>