<svg xmlns="http://www.w3.org/2000/svg" viewBox="0 0 538.56 347.53"><defs><style>.cls-1{fill:#cff;}.cls-2{fill:#3cf;}</style></defs><g id="Layer_2" data-name="Layer 2"><g id="Layer_1-2" data-name="Layer 1"><path class="cls-1" d="M29.74,218c15.44,13.16,39.31,29.41,71,35,37.58,6.63,45-8.4,74-2,46.2,10.19,49.95,58,104,82,18.72,8.33,43.14,20.59,65,11,41.4-18.17,51.24-103.56,22-128-5.47-4.57-9.22-4.43-52-8-67-5.59-79.42-7.74-91-18-16-14.17-8.55-24.47-24-35-19.89-13.55-35.44,1.32-81-4-29.57-3.45-30.23-10.55-53-10-6.57.16-57.27,2-64,28C-3.27,184.51,9.43,204.15,29.74,218Z"/><path class="cls-2" d="M185.74,77c15.44,13.16,39.31,29.41,71,35,37.58,6.63,45-8.4,74-2,46.2,10.19,49.95,58,104,82,18.72,8.33,43.14,20.59,65,11,41.4-18.17,51.24-103.56,22-128-5.47-4.57-9.22-4.43-52-8-67-5.59-79.42-7.74-91-18-16-14.17-8.55-24.47-24-35-19.89-13.55-35.44,1.32-81-4-29.57-3.45-30.23-10.55-53-10-6.57.16-57.27,2-64,28C152.73,43.51,165.43,63.15,185.74,77Z"/></g></g></svg>