<svg xmlns="http://www.w3.org/2000/svg" xmlns:xlink="http://www.w3.org/1999/xlink" viewBox="0 0 789.69 722.62"><defs><style>.cls-1{fill:#6cf;}.cls-2{fill:#cff;opacity:0.51;}.cls-3{fill:#090;}.cls-4{fill:#030;}.cls-29,.cls-5{fill:none;}.cls-6,.cls-7{fill:#231f20;}.cls-6{fill-rule:evenodd;}.cls-19,.cls-8{fill:#960;}.cls-17,.cls-9{fill:#fff;}.cls-10{fill:#c93;}.cls-11{opacity:0.5;}.cls-12{fill:#ccc;}.cls-13{fill:url(#linear-gradient);}.cls-14{fill:url(#linear-gradient-2);}.cls-15{fill:#300;}.cls-16{opacity:0.82;}.cls-17{opacity:0.11;}.cls-18{fill:#f90;}.cls-19,.cls-20{stroke:#fff;}.cls-19,.cls-20,.cls-21,.cls-29{stroke-miterlimit:10;}.cls-21{stroke:#000;}.cls-22{fill:#c0c;}.cls-23{fill:url(#linear-gradient-3);}.cls-24{fill:url(#linear-gradient-4);}.cls-25{fill:#006;}.cls-26{fill:#0cc;}.cls-27{fill:#3cf;}.cls-28{fill:#fc0;}.cls-29{stroke:#fc0;stroke-width:5px;}</style><linearGradient id="linear-gradient" x1="-94.67" y1="-35.25" x2="-68.83" y2="-35.25" gradientTransform="matrix(-0.81, -0.41, -0.37, 0.83, 426.59, 360.39)" gradientUnits="userSpaceOnUse"><stop offset="0" stop-color="#600"/><stop offset="0.27" stop-color="#5d0000"/><stop offset="0.72" stop-color="#430000"/><stop offset="0.96" stop-color="#300"/></linearGradient><linearGradient id="linear-gradient-2" x1="-227.6" y1="81.43" x2="-201.77" y2="81.43" gradientTransform="matrix(-0.85, -0.3, -0.27, 0.88, 362.91, 183.11)" xlink:href="#linear-gradient"/><linearGradient id="linear-gradient-3" x1="-97.56" y1="181.98" x2="-68.22" y2="181.98" gradientTransform="translate(150.9 315.2) rotate(-39.71)" xlink:href="#linear-gradient"/><linearGradient id="linear-gradient-4" x1="-203.66" y1="290.53" x2="-174.32" y2="290.53" gradientTransform="matrix(0.84, -0.54, 0.54, 0.84, 171.76, 114.45)" xlink:href="#linear-gradient"/></defs><g id="Layer_2" data-name="Layer 2"><g id="Layer_1-2" data-name="Layer 1"><path class="cls-1" d="M35,305.32c-2.73-30.15,3.2-52.68,10.06-78.79C50.89,204.4,78.7,97.6,179,38.73,245.24-.18,312.34,0,343,0c53.13.11,53.55,12.36,124.92,13.91C547.84,15.64,561.72.58,602,17c34.51,14.08,40.14,31.59,84,43,27.62,7.19,46.73,5.8,51,17,5.37,14.11-20.61,27.55-31.48,53.47C687.83,172.59,724.45,213.35,737,252c37.19,114.61-104.14,312.6-252,332.86-51.51,7.06-112.77-6.23-123.83-8.64-20.76-4.53-61.55-15-111.75-41C189.34,504.12,46.28,430.11,35,305.32Z"/><path class="cls-2" d="M151.81,306.18c-2-25.46,2.3-44.48,7.23-66.52,21.51-96,82.5-147.54,96.24-158.54,70-56.1,175.72-72.67,207.66-21,14.69,23.77,3.57,45.46,22.43,66.51,17.84,19.91,38.77,12.8,98.41,21.87,30.66,4.67,46.16,6,49.93,10,47.53,50.24-38.79,361.68-158.47,383.6-22.05,4-58.16.61-89-7.29-14.92-3.82-44.23-12.7-80.31-34.62C262.74,474,159.91,411.53,151.81,306.18Z"/><path class="cls-3" d="M129,671c16.58,13.82,65.3-16.21,75.5-22.5,11.2-6.9,15-12.34,25.17-20.87,2.43-2,4.58-3.73,6.45-5.13,4.5-3.38,7.89-5.66,8.38-6,9.58-6.5,24-38.88,39.5-62.5,9.64-14.65,14.46-22,23-29,10.21-8.38,19.38-11.82,27-24,2.55-4.07,8.38-13.39,5.5-17.5-6.72-9.6-57.17,14.71-62.5,17.5-85.73,45-139.17,116.78-139.5,116.5-.58-.48,185.35-202.4,160-234-11.17-13.92-62.76,9.6-79,17C130.27,440.71,88,511.91,78,505c-5.07-3.5,5.31-22.23,18-67,12.76-45,22.9-80.75,14-86-12.29-7.25-68,39.64-86.5,104.5-1.65,5.8-24.53,91,20,127,14.29,11.56,37.89,19.47,58,13,24.22-7.78,33.8-32.44,39-30C150.2,571.07,107.6,653.17,129,671Z"/><path class="cls-4" d="M102,718c5.13,1.8,27,9.42,46,0a56.25,56.25,0,0,0,5.16-3c18.65-11.62,17.52-20,26.84-23,12.29-3.92,23.51,7.8,31.67,1.63.92-.7,2.73-2.34,6.45-5.13,4.5-3.38,7.89-5.66,8.38-6,9.58-6.5,24-38.88,39.5-62.5,9.64-14.65,14.46-22,23-29,10.21-8.38,19.38-11.82,27-24,2.55-4.07,8.38-13.39,5.5-17.5-6.72-9.6-57.17,14.71-62.5,17.5-85.73,45-139.17,116.78-139.5,116.5-.58-.48,185.35-202.4,160-234-11.17-13.92-62.76,9.6-79,17C112.27,506.71,70,577.91,60,571c-5.07-3.5,5.31-22.23,18-67,12.76-45,22.9-80.75,14-86-12.29-7.25-68,39.64-86.5,104.5-16.54,57.93,8.46,111.24,20,127,8,11,19.5,23.5,19.5,23.5a247.75,247.75,0,0,0,19,19C78.89,705.2,87.73,713,102,718Z"/><path class="cls-5" d="M187,376.17c.4-4.42.89-8.82,1.52-13.16l-14.85-2.15c-.67,4.68-1.19,9.33-1.61,14Z"/><polygon class="cls-6" points="180.05 365.38 181.54 365.57 181.87 363.07 180.39 362.86 180.05 365.38"/><polygon class="cls-6" points="179.52 369.91 181.01 370.07 181.29 367.56 179.8 367.38 179.52 369.91"/><polygon class="cls-6" points="179.06 374.43 180.55 374.56 180.8 372.05 179.31 371.9 179.06 374.43"/><path class="cls-5" d="M188.48,363c.63-4.34,1.39-8.62,2.37-12.77l-14.6-3.45c-1.11,4.71-1.94,9.4-2.62,14.07Z"/><path class="cls-6" d="M182.27,351.87l1.46.3c.18-.82.34-1.64.54-2.46l-1.46-.33C182.61,350.21,182.44,351,182.27,351.87Z"/><polygon class="cls-6" points="181.41 356.35 182.89 356.61 183.34 354.13 181.87 353.85 181.41 356.35"/><polygon class="cls-6" points="180.68 360.84 182.16 361.06 182.56 358.57 181.08 358.32 180.68 360.84"/><path class="cls-5" d="M190.85,350.24a73.55,73.55,0,0,1,3.71-11.79l-13.79-5.89a88,88,0,0,0-4.52,14.23Z"/><path class="cls-6" d="M185.87,338.63l1.41.51c.28-.79.58-1.57.89-2.34l-1.39-.56C186.47,337,186.16,337.83,185.87,338.63Z"/><path class="cls-6" d="M184.46,343l1.44.43c.23-.81.48-1.6.74-2.4l-1.42-.46C185,341.36,184.69,342.16,184.46,343Z"/><path class="cls-6" d="M183.28,347.38l1.45.36c.2-.81.41-1.63.63-2.43l-1.45-.4C183.69,345.73,183.48,346.56,183.28,347.38Z"/><path class="cls-5" d="M194.56,338.45a33.47,33.47,0,0,1,2.56-4.93,14.47,14.47,0,0,1,2.91-3.45l-9.58-11.54a29.1,29.1,0,0,0-5.94,6.87,48.18,48.18,0,0,0-3.74,7.16Z"/><path class="cls-6" d="M192.34,326.47l1.15,1a21.3,21.3,0,0,1,1.66-1.76l-1-1.09A19.89,19.89,0,0,0,192.34,326.47Z"/><path class="cls-6" d="M189.69,330.26,191,331c.43-.69.86-1.4,1.34-2l-1.23-.87C190.58,328.79,190.14,329.53,189.69,330.26Z"/><path class="cls-6" d="M187.6,334.34,189,335c.34-.76.7-1.5,1.08-2.23l-1.33-.7C188.32,332.79,187.94,333.56,187.6,334.34Z"/><path class="cls-5" d="M200,330.07a7.92,7.92,0,0,1,1.39-.94,5.28,5.28,0,0,1,1.31-.43,5.81,5.81,0,0,1,1.41-.09,10.12,10.12,0,0,1,1.8.37l4.22-14.4a24.51,24.51,0,0,0-4.89-.92,20.63,20.63,0,0,0-10.53,2,22.94,22.94,0,0,0-4.29,2.83Z"/><path class="cls-6" d="M204.61,320.6l-.1,1.5a15.71,15.71,0,0,1,2.35.36l.34-1.46A17.43,17.43,0,0,0,204.61,320.6Z"/><path class="cls-6" d="M199.93,321.13l.43,1.43a7.55,7.55,0,0,1,1.14-.27,6.37,6.37,0,0,1,1.15-.16l-.13-1.5a7.15,7.15,0,0,0-1.3.19A8.08,8.08,0,0,0,199.93,321.13Z"/><path class="cls-6" d="M195.74,323.23l.89,1.21a14.2,14.2,0,0,1,2-1.21l-.66-1.36A17.7,17.7,0,0,0,195.74,323.23Z"/><path class="cls-5" d="M205.94,329c2.71.77,6.14,2.93,9.58,5.46l8.83-12.12a73.87,73.87,0,0,0-6.29-4.2,36,36,0,0,0-7.9-3.54Z"/><path class="cls-6" d="M217.33,325.9l-.83,1.24c.69.47,1.37.94,2.05,1.44l.88-1.22C218.74,326.86,218,326.38,217.33,325.9Z"/><path class="cls-6" d="M213.42,323.49l-.72,1.32c.72.41,1.43.81,2.13,1.26l.8-1.27C214.91,324.34,214.16,323.92,213.42,323.49Z"/><path class="cls-6" d="M209.22,321.59l-.5,1.41a24.33,24.33,0,0,1,2.25.94l.64-1.36C210.83,322.21,210,321.89,209.22,321.59Z"/><path class="cls-5" d="M215.52,334.44c3.51,2.53,7.06,5.49,11.68,8.31l7.7-12.87c-3.18-1.91-6.69-4.76-10.55-7.56Z"/><path class="cls-6" d="M228.38,333.94l-.86,1.24c.71.48,1.42,1,2.15,1.42l.8-1.27C229.76,334.89,229.07,334.42,228.38,333.94Z"/><polygon class="cls-6" points="224.72 331.28 223.82 332.48 225.87 334 226.75 332.78 224.72 331.28"/><polygon class="cls-6" points="221.08 328.56 220.19 329.77 222.22 331.28 223.12 330.08 221.08 328.56"/><path class="cls-5" d="M227.2,342.75c.58.35,1.17.69,1.82,1s1.32.66,2,1,1.47.6,2.24.88a20.8,20.8,0,0,0,2.59.68,16.12,16.12,0,0,0,6.14.09,14.87,14.87,0,0,0,6.18-2.58l-8.74-12.2s0,0-.06,0a1.39,1.39,0,0,1-.64,0,13.12,13.12,0,0,1-3.84-1.72Z"/><path class="cls-6" d="M240.48,338.53l.24,1.48a9.12,9.12,0,0,0,2.69-.89l-.7-1.33a5.24,5.24,0,0,1-1.09.46A5.43,5.43,0,0,1,240.48,338.53Z"/><path class="cls-6" d="M236.23,338.15l-.43,1.43a8.49,8.49,0,0,0,1.32.33l.68.13.69.06.11-1.5-.6-.05-.59-.11A8.13,8.13,0,0,1,236.23,338.15Z"/><polygon class="cls-6" points="232.2 336.37 231.47 337.68 232.62 338.3 233.82 338.86 234.42 337.48 233.3 336.96 232.2 336.37"/><path class="cls-5" d="M248.18,343.83a14.07,14.07,0,0,0,2.53-2.28c.37-.43.72-.88,1-1.34s.58-.91.85-1.37a20.63,20.63,0,0,0,1.91-5.08,44.47,44.47,0,0,0,1-8.19l-15-.67a30,30,0,0,1-.59,5.35,5.53,5.53,0,0,1-.45,1.31.25.25,0,0,0,0,.09s0,0,0,0h0Z"/><path class="cls-6" d="M247.24,328.71l1.49.17c.1-.87.16-1.72.21-2.58l-1.49-.09C247.39,327.05,247.34,327.88,247.24,328.71Z"/><path class="cls-6" d="M246.39,333.06l1.42.46a20,20,0,0,0,.64-2.59l-1.48-.26A18.93,18.93,0,0,1,246.39,333.06Z"/><path class="cls-6" d="M244.25,336.7l1,1.08a8.71,8.71,0,0,0,1.7-2.26l-1.32-.7A7.65,7.65,0,0,1,244.25,336.7Z"/><path class="cls-5" d="M255.52,325.57c.19-4.92.12-9.3.38-13.56l-15-.86c-.29,4.84-.22,9.58-.4,13.75Z"/><polygon class="cls-6" points="247.73 315.11 249.23 315.15 249.33 312.64 247.83 312.57 247.73 315.11"/><polygon class="cls-6" points="247.63 319.66 249.13 319.69 249.18 317.16 247.68 317.12 247.63 319.66"/><polygon class="cls-6" points="247.53 324.18 249.03 324.23 249.1 321.69 247.6 321.66 247.53 324.18"/><path class="cls-5" d="M255.9,312a64.74,64.74,0,0,1,1.71-12.1l-14.54-3.65a79.08,79.08,0,0,0-2.14,14.89Z"/><path class="cls-6" d="M249.06,301.45l1.48.27c.14-.82.33-1.63.51-2.44l-1.46-.34C249.4,299.78,249.21,300.61,249.06,301.45Z"/><path class="cls-6" d="M248.37,306l1.49.17c.1-.82.21-1.65.34-2.47l-1.48-.23C248.58,304.29,248.47,305.13,248.37,306Z"/><path class="cls-6" d="M248,310.52l1.5.1c.06-.84.11-1.67.2-2.5l-1.49-.15C248.06,308.82,248,309.67,248,310.52Z"/><path class="cls-5" d="M257.61,299.91a42.09,42.09,0,0,1,4.29-10.77l-13-7.41a57.27,57.27,0,0,0-5.78,14.53Z"/><path class="cls-6" d="M253.25,288.35l1.36.64c.32-.76.76-1.47,1.14-2.2l-1.32-.72C254,286.83,253.59,287.56,253.25,288.35Z"/><path class="cls-6" d="M251.47,292.58l1.41.52c.26-.79.61-1.54.91-2.32l-1.38-.58C252.1,291,251.74,291.77,251.47,292.58Z"/><path class="cls-6" d="M250.09,296.94l1.45.4c.19-.81.47-1.6.7-2.39l-1.43-.46C250.57,295.31,250.29,296.11,250.09,296.94Z"/><path class="cls-5" d="M261.9,289.14a49.62,49.62,0,0,1,7.09-9.46l-10.91-10.3a65.19,65.19,0,0,0-9.23,12.35Z"/><path class="cls-6" d="M260.77,276.83l1.15,1c.54-.64,1.05-1.29,1.64-1.88l-1.11-1C261.85,275.51,261.33,276.18,260.77,276.83Z"/><polygon class="cls-6" points="257.95 280.45 259.17 281.32 260.65 279.31 259.47 278.39 257.95 280.45"/><polygon class="cls-6" points="255.43 284.26 256.72 285.03 258.06 282.93 256.81 282.1 255.43 284.26"/><path class="cls-5" d="M269,279.68a68.14,68.14,0,0,1,9.22-8.08l-8.83-12.12a83,83,0,0,0-11.3,9.9Z"/><polygon class="cls-6" points="270.65 267.28 271.58 268.45 273.57 266.93 272.68 265.73 270.65 267.28"/><path class="cls-6" d="M267.15,270.24l1,1.11c.62-.56,1.26-1.08,1.9-1.63l-1-1.15C268.45,269.13,267.79,269.67,267.15,270.24Z"/><path class="cls-6" d="M263.87,273.41l1.07,1c.56-.61,1.18-1.17,1.79-1.75l-1-1.08C265.07,272.2,264.44,272.77,263.87,273.41Z"/><path class="cls-5" d="M278.21,271.6a88.18,88.18,0,0,1,10.68-6.55L282,251.75a101.5,101.5,0,0,0-12.57,7.73Z"/><path class="cls-6" d="M282.05,259.63l.74,1.3c.73-.4,1.44-.83,2.19-1.22l-.71-1.32C283.52,258.78,282.79,259.22,282.05,259.63Z"/><polygon class="cls-6" points="278.13 261.98 278.93 263.25 281.06 261.92 280.29 260.63 278.13 261.98"/><polygon class="cls-6" points="274.34 264.52 275.21 265.74 277.27 264.32 276.44 263.07 274.34 264.52"/><path class="cls-5" d="M288.89,265.05a91.7,91.7,0,0,1,11.6-5.11l-5.16-14.08A105.93,105.93,0,0,0,282,251.75Z"/><path class="cls-6" d="M294.4,253.67l.56,1.39c.77-.33,1.56-.62,2.35-.91l-.53-1.4C296,253,295.18,253.34,294.4,253.67Z"/><path class="cls-6" d="M290.2,255.48l.62,1.36c.76-.36,1.52-.7,2.3-1l-.58-1.38C291.75,254.76,291,255.11,290.2,255.48Z"/><path class="cls-6" d="M286.1,257.45l.68,1.34c.75-.38,1.48-.78,2.25-1.12l-.65-1.35C287.61,256.66,286.86,257.07,286.1,257.45Z"/><path class="cls-5" d="M300.49,259.94a101.48,101.48,0,0,1,12.21-3.67l-3.44-14.6a116.82,116.82,0,0,0-13.93,4.19Z"/><polygon class="cls-6" points="307.4 249.31 307.79 250.76 310.23 250.16 309.88 248.7 307.4 249.31"/><path class="cls-6" d="M303,250.59l.45,1.43c.79-.26,1.6-.47,2.41-.71l-.42-1.44C304.65,250.11,303.83,250.32,303,250.59Z"/><path class="cls-6" d="M298.7,252l.51,1.41c.78-.31,1.58-.54,2.37-.81l-.47-1.42C300.31,251.49,299.49,251.73,298.7,252Z"/><path class="cls-5" d="M312.7,256.27a111.43,111.43,0,0,1,12.54-2.17l-1.62-14.91a126.35,126.35,0,0,0-14.36,2.48Z"/><polygon class="cls-6" points="320.84 246.57 321.05 248.06 323.55 247.74 323.37 246.25 320.84 246.57"/><polygon class="cls-6" points="316.33 247.3 316.6 248.78 319.08 248.36 318.84 246.88 316.33 247.3"/><polygon class="cls-6" points="311.87 248.21 312.2 249.67 314.66 249.16 314.37 247.69 311.87 248.21"/><path class="cls-5" d="M325.24,254.1a99,99,0,0,1,12.63-.52l.4-15a113.37,113.37,0,0,0-14.65.61Z"/><polygon class="cls-6" points="334.52 245.53 334.53 247.03 337.04 247.01 337.07 245.51 334.52 245.53"/><polygon class="cls-6" points="329.95 245.68 330.03 247.17 332.54 247.05 332.5 245.55 329.95 245.68"/><polygon class="cls-6" points="325.41 246.02 325.56 247.52 328.06 247.29 327.95 245.8 325.41 246.02"/><path class="cls-5" d="M337.87,253.58a72.46,72.46,0,0,1,12.37,1.29L353,240.13a89.1,89.1,0,0,0-14.76-1.55Z"/><path class="cls-6" d="M348.22,246.39l-.22,1.48c.83.09,1.65.26,2.47.4l.26-1.47C349.9,246.64,349.06,246.48,348.22,246.39Z"/><path class="cls-6" d="M343.67,245.87l-.13,1.5c.83.06,1.67.13,2.49.25l.18-1.49C345.37,246,344.52,245.94,343.67,245.87Z"/><path class="cls-6" d="M339.12,245.59l-.06,1.5c.84,0,1.68,0,2.51.11l.1-1.49C340.82,245.62,340,245.63,339.12,245.59Z"/><path class="cls-5" d="M350.24,254.87a60.23,60.23,0,0,1,11.64,3.38l5.69-13.88A75.56,75.56,0,0,0,353,240.13Z"/><polygon class="cls-6" points="361.58 249.56 361.09 250.98 363.44 251.83 363.99 250.43 361.58 249.56"/><polygon class="cls-6" points="357.2 248.21 356.81 249.66 359.21 250.36 359.65 248.93 357.2 248.21"/><path class="cls-6" d="M352.76,247.16l-.3,1.47c.82.16,1.63.38,2.44.56l.35-1.46C354.42,247.54,353.59,247.32,352.76,247.16Z"/><path class="cls-5" d="M361.88,258.25A51.13,51.13,0,0,1,372.33,264L381,251.77a66.13,66.13,0,0,0-13.39-7.4Z"/><path class="cls-6" d="M374,255.49l-.8,1.27c.71.43,1.4.91,2.09,1.37l.85-1.24C375.41,256.42,374.71,255.93,374,255.49Z"/><path class="cls-6" d="M370,253.18l-.7,1.33c.73.38,1.45.81,2.17,1.21l.76-1.29C371.51,254,370.77,253.58,370,253.18Z"/><path class="cls-6" d="M365.88,251.23l-.59,1.38c.76.34,1.54.63,2.28,1l.65-1.35C367.46,251.88,366.66,251.58,365.88,251.23Z"/><path class="cls-5" d="M372.33,264c1.71,1.19,3.47,2.54,5.38,3.95a67.07,67.07,0,0,0,6.37,4.24l7.5-13a52.3,52.3,0,0,1-5-3.34c-1.75-1.29-3.61-2.71-5.63-4.13Z"/><path class="cls-6" d="M385.13,263.41l-.84,1.24c.69.5,1.44.93,2.16,1.4l.78-1.28C386.53,264.32,385.81,263.9,385.13,263.41Z"/><polygon class="cls-6" points="381.45 260.77 380.56 261.97 382.62 263.48 383.49 262.26 381.45 260.77"/><polygon class="cls-6" points="377.8 258.08 376.92 259.29 378.96 260.78 379.85 259.58 377.8 258.08"/><path class="cls-5" d="M384.08,272.23a44.3,44.3,0,0,0,7.42,3.44l1.94.64c.64.21,1.29.36,1.94.54,1.3.37,2.59.61,3.87.86L402,263a31.28,31.28,0,0,1-10.39-3.72Z"/><path class="cls-6" d="M397.29,269.05l-.38,1.45c.83.23,1.67.44,2.52.59l.3-1.47C398.9,269.48,398.1,269.27,397.29,269.05Z"/><path class="cls-6" d="M393,267.66l-.55,1.4c.79.36,1.63.58,2.45.87l.45-1.43C394.6,268.22,393.79,268,393,267.66Z"/><path class="cls-6" d="M389,265.78l-.71,1.32c.75.42,1.55.77,2.32,1.17l.62-1.37C390.47,266.52,389.71,266.19,389,265.78Z"/><path class="cls-5" d="M399.25,277.71a60,60,0,0,0,15.58.74l-1.24-14.95A44.69,44.69,0,0,1,402,263Z"/><path class="cls-6" d="M410.66,270.62l0,1.5c.86,0,1.72,0,2.58-.1l-.1-1.49C412.34,270.61,411.5,270.6,410.66,270.62Z"/><polygon class="cls-6" points="406.17 270.5 406.06 272 408.64 272.14 408.67 270.64 406.17 270.5"/><polygon class="cls-6" points="401.71 270 401.47 271.48 404.04 271.81 404.2 270.31 401.71 270"/><path class="cls-5" d="M414.83,278.45A110.78,110.78,0,0,0,429.2,276l-3.06-14.68a97.34,97.34,0,0,1-12.55,2.14Z"/><rect class="cls-7" x="424.22" y="268.64" width="2.54" height="1.5" transform="matrix(0.98, -0.2, 0.2, 0.98, -45.85, 92.05)"/><path class="cls-6" d="M419.64,269.75l.25,1.48c.84-.15,1.69-.27,2.52-.45l-.28-1.47C421.3,269.48,420.47,269.6,419.64,269.75Z"/><path class="cls-6" d="M415.19,270.37l.15,1.49c.86-.08,1.7-.21,2.55-.32l-.21-1.48C416.85,270.16,416,270.29,415.19,270.37Z"/><path class="cls-5" d="M429.2,276c4.32-.9,8.06-1.52,10.92-1l2.16-14.84a28.79,28.79,0,0,0-4.49-.33c-.75,0-1.42,0-2.14.08s-1.43.07-2.07.17l-2,.25c-.66.09-1.25.21-1.88.32-1.27.21-2.4.45-3.57.69Z"/><path class="cls-6" d="M437.67,266.81v1.5c.81,0,1.62,0,2.43.11l.14-1.49C439.39,266.84,438.53,266.85,437.67,266.81Z"/><path class="cls-6" d="M433.07,267.18l.21,1.49c.82-.09,1.64-.25,2.45-.27l-.11-1.49C434.76,266.93,433.92,267.09,433.07,267.18Z"/><path class="cls-6" d="M428.58,268l.29,1.47c.83-.18,1.65-.33,2.47-.47l-.26-1.48C430.24,267.64,429.4,267.8,428.58,268Z"/><path class="cls-5" d="M440.12,275a14.87,14.87,0,0,1,8.08,4l10.17-11A32.27,32.27,0,0,0,451,262.9c-.68-.34-1.4-.61-2.1-.91a17.86,17.86,0,0,0-2.15-.8,27.4,27.4,0,0,0-4.51-1Z"/><path class="cls-6" d="M450.82,270.85l-.85,1.23a21,21,0,0,1,1.93,1.48l1-1.14A22.24,22.24,0,0,0,450.82,270.85Z"/><path class="cls-6" d="M446.74,268.62l-.59,1.38a16.3,16.3,0,0,1,2.19,1.05l.74-1.3A16.28,16.28,0,0,0,446.74,268.62Z"/><path class="cls-6" d="M442.33,267.22,442,268.7c.79.16,1.56.41,2.34.6l.46-1.42C444,267.66,443.17,267.4,442.33,267.22Z"/><path class="cls-5" d="M448.2,279a22.5,22.5,0,0,1,3.32,3.91c.53.72,1,1.54,1.47,2.33s.91,1.65,1.3,2.56l13.56-6.4a46.94,46.94,0,0,0-4-7,37.84,37.84,0,0,0-5.52-6.45Z"/><polygon class="cls-6" points="459.92 281.19 458.61 281.93 459.77 284.12 461.12 283.46 459.92 281.19"/><path class="cls-6" d="M457.41,277.33l-1.21.89c.49.66.94,1.35,1.4,2l1.26-.8C458.39,278.73,457.92,278,457.41,277.33Z"/><path class="cls-6" d="M454.4,273.84l-1.06,1.06c.59.56,1.12,1.18,1.66,1.8l1.15-1C455.58,275.08,455,274.43,454.4,273.84Z"/><path class="cls-5" d="M454.29,287.81a61.16,61.16,0,0,1,3.92,11.47l14.57-3.55a76.18,76.18,0,0,0-4.93-14.32Z"/><polygon class="cls-6" points="465.09 293.93 463.65 294.35 464.3 296.77 465.75 296.4 465.09 293.93"/><path class="cls-6" d="M463.68,289.58l-1.41.5c.28.79.57,1.57.8,2.37l1.43-.45C464.26,291.18,464,290.38,463.68,289.58Z"/><path class="cls-6" d="M462,285.33l-1.37.61c.35.75.64,1.53,1,2.3l1.4-.55C462.65,286.9,462.35,286.1,462,285.33Z"/><path class="cls-8" d="M523.43,449.58c14,25.25,41.66,31.8,47.41,33,6.9,1.44,24,5,40.85-4.51,20-11.26,25.72-33,27.95-41.45,1.78-6.75,7.31-27.69-1.73-48-12.88-28.94-53.87-53.34-89.8-34.2C512.84,373.2,507.41,420.61,523.43,449.58Z"/><path class="cls-8" d="M549.18,358.29a33.21,33.21,0,0,0,11.11-7.77c7.46-8.1,7.91-17.66,7.83-21.63"/><path class="cls-8" d="M545.35,395.13c2,.63,10-14.37,7.65-30.11-.37-2.45-.89-5.87-1.78-5.93C548.32,358.89,542.48,394.22,545.35,395.13Z"/><path class="cls-8" d="M494.51,406.82c16,7.77,36.8,5.1,47.41-6.5,7.61-8.33,3.57-14.24,12-38.38s14.9-25.18,14.85-37.37c-.07-16.26-11.67-35.5-29.7-42.54-22.63-8.84-44.46,5.76-53.59,18.65-4.3,6.06-6.59,12.82-11.14,26.24-4.22,12.46-6.45,19-7,26.49C466.21,369.51,472.73,396.26,494.51,406.82Z"/><ellipse class="cls-9" cx="504.87" cy="366.02" rx="23.1" ry="24.77" transform="translate(-4.6 6.44) rotate(-0.73)"/><path class="cls-10" d="M495.45,396.55c23,10.15,47.85-14.17,51.41-26.74.3-1.05,1.38-5.31,3.32-11.63,2.51-8.15,4.59-13.64,5-14.85,4.29-12.33-.46-45.47-21.82-53-13.37-4.73-30.32,1.62-36.58,12.83-5.3,9.5.83,15.74-4.64,28.68-5.78,13.68-15.24,12.87-18.37,23.3C469.72,368.63,479.7,389.6,495.45,396.55Z"/><path class="cls-9" d="M524.79,339a19.24,19.24,0,0,1-7.4-1.48c-10.33-4.26-15.62-16.44-11.8-27.15a19.2,19.2,0,0,1,25.61-11.67c10.33,4.26,15.62,16.44,11.8,27.15A19.29,19.29,0,0,1,524.79,339Z"/><path d="M523.81,297.74a18.81,18.81,0,0,1,7.2,1.44c10.09,4.16,15.25,16.06,11.52,26.52a18.7,18.7,0,0,1-24.95,11.38c-10.08-4.16-15.25-16.06-11.52-26.52a18.82,18.82,0,0,1,17.75-12.82m0-1a19.89,19.89,0,0,0-18.69,13.48c-3.92,11,1.49,23.42,12.08,27.78a19.69,19.69,0,0,0,26.27-12c3.92-11-1.49-23.42-12.08-27.78a19.87,19.87,0,0,0-7.58-1.52Z"/><g class="cls-11"><path class="cls-9" d="M502.05,398.92a19.11,19.11,0,0,1-7.32-1.45c-13-5.35-19-22.53-13.32-38.3,2.08-5.81,9-13.39,10.37-14.85a74.07,74.07,0,0,1,5.68-5.38c1.39-1.15,2.84-2.26,4.3-3.28l.26-.19,0-.31c-.36-2.08-.63-4.21-.81-6.31,0,0-.22-2.58-.26-5.09-.08-4.84.47-13.38,1.69-16.8,4.28-12,14.5-20.06,25.42-20.06a21.79,21.79,0,0,1,8.3,1.65c13.18,5.43,18.07,24.55,13.63,38-3,9.07-10.47,16.56-19.07,19.07a24.38,24.38,0,0,1-6.16,1l-.86,0,.45.74a37.81,37.81,0,0,1,2.69,5.36c.58,1.43,5.54,14.31,1.41,25.88C524.92,388.37,513.85,398.92,502.05,398.92Z"/><path d="M528,286.4v1h0a21.21,21.21,0,0,1,8.11,1.61c6.17,2.55,10.88,8.22,13.28,16a36.54,36.54,0,0,1,.07,21.42c-2.94,8.92-10.29,16.28-18.74,18.75a23.87,23.87,0,0,1-6,1l-1.72,0,.89,1.47a36.86,36.86,0,0,1,2.66,5.29c.57,1.41,5.47,14.12,1.4,25.52-3.42,9.61-14.29,20-25.88,20a18.73,18.73,0,0,1-7.13-1.41c-12.73-5.25-18.58-22.15-13-37.67,2-5.72,8.91-13.23,10.26-14.68a71.8,71.8,0,0,1,5.64-5.33c1.38-1.15,2.81-2.25,4.27-3.26l.52-.37-.11-.62c-.35-2.07-.62-4.18-.8-6.27,0-.11-.22-2.57-.26-5.06-.08-4.81.46-13.25,1.66-16.62,4.21-11.8,14.24-19.73,24.95-19.73v-1m0,0c-10.84,0-21.42,7.86-25.89,20.39-1.23,3.45-1.8,12-1.72,17,0,2.56.26,5.12.26,5.12.21,2.46.52,4.61.82,6.36-1.22.85-2.7,1.95-4.34,3.31a76.15,76.15,0,0,0-5.73,5.41c-2.85,3-8.6,9.79-10.47,15-5.73,16,.36,33.47,13.6,38.93a19.6,19.6,0,0,0,7.51,1.49c11.78,0,23.11-10.23,26.82-20.65,4.23-11.85-1-25.11-1.42-26.24a38.08,38.08,0,0,0-2.72-5.43,25.17,25.17,0,0,0,6.29-1c9.2-2.69,16.54-10.72,19.4-19.4,4.3-13,.17-32.81-13.92-38.62A22.09,22.09,0,0,0,528,286.4Z"/></g><path class="cls-9" d="M506.53,385.42a19.43,19.43,0,0,1-7.4-1.48c-10.32-4.26-15.62-16.44-11.79-27.15a19.18,19.18,0,0,1,25.6-11.67c10.33,4.26,15.63,16.44,11.8,27.15a19.29,19.29,0,0,1-18.21,13.15Z"/><path d="M505.55,344.14a18.77,18.77,0,0,1,7.2,1.44c10.09,4.16,15.26,16.06,11.52,26.52a18.69,18.69,0,0,1-24.94,11.38c-10.09-4.16-15.26-16.06-11.52-26.52a18.8,18.8,0,0,1,17.74-12.82m0-1a19.87,19.87,0,0,0-18.68,13.48c-3.92,11,1.49,23.42,12.07,27.78a19.69,19.69,0,0,0,26.27-12c3.92-11-1.49-23.42-12.08-27.78a19.68,19.68,0,0,0-7.58-1.52Z"/><path class="cls-12" d="M506.38,378.84a13.24,13.24,0,0,1-5.06-1,14.87,14.87,0,0,1-8.08-18.61,13.14,13.14,0,0,1,17.52-8,14.87,14.87,0,0,1,8.08,18.61,13.2,13.2,0,0,1-12.46,9Z"/><path d="M505.7,350.72a12.68,12.68,0,0,1,4.87,1,14.36,14.36,0,0,1,7.8,18,12.62,12.62,0,0,1-16.86,7.69,14.36,14.36,0,0,1-7.8-18,12.71,12.71,0,0,1,12-8.67m0-1a13.75,13.75,0,0,0-12.93,9.34,15.35,15.35,0,0,0,8.36,19.23A13.63,13.63,0,0,0,519.31,370,15.35,15.35,0,0,0,511,350.77a13.81,13.81,0,0,0-5.25-1Z"/><path class="cls-12" d="M523.08,334.43a13.24,13.24,0,0,1-5.06-1,14.87,14.87,0,0,1-8.08-18.61,13.14,13.14,0,0,1,17.52-8,14.87,14.87,0,0,1,8.08,18.61,13.2,13.2,0,0,1-12.46,9Z"/><path d="M522.4,306.31a12.68,12.68,0,0,1,4.87,1,14.36,14.36,0,0,1,7.8,18A12.62,12.62,0,0,1,518.21,333a14.36,14.36,0,0,1-7.8-18,12.71,12.71,0,0,1,12-8.67m0-1a13.75,13.75,0,0,0-12.93,9.34,15.35,15.35,0,0,0,8.36,19.23A13.63,13.63,0,0,0,536,325.59a15.35,15.35,0,0,0-8.36-19.23,13.81,13.81,0,0,0-5.25-1.05Z"/><path class="cls-13" d="M506.07,376.69a11.19,11.19,0,0,1-5.1-1.24,12.56,12.56,0,0,1-5.61-16.15,11,11,0,0,1,15.24-5.46A12.55,12.55,0,0,1,516.21,370a11,11,0,0,1-10.14,6.7Z"/><path d="M505.5,353.1a10.65,10.65,0,0,1,4.88,1.19,12,12,0,0,1,5.37,15.5A10.53,10.53,0,0,1,501.2,375a12,12,0,0,1-5.38-15.5,10.55,10.55,0,0,1,9.68-6.4m0-1a11.6,11.6,0,0,0-10.59,7,13,13,0,0,0,5.83,16.8,11.54,11.54,0,0,0,15.93-5.69,13.06,13.06,0,0,0-5.84-16.81,11.69,11.69,0,0,0-5.33-1.29Z"/><path class="cls-14" d="M523.28,332.05a11.12,11.12,0,0,1-3.76-.66A12.5,12.5,0,0,1,512,316.06,11.2,11.2,0,0,1,522.7,308a11.07,11.07,0,0,1,3.76.66A12.48,12.48,0,0,1,533.94,324a11.19,11.19,0,0,1-10.66,8.1Z"/><path d="M522.7,308.46a10.61,10.61,0,0,1,3.59.63,12,12,0,0,1,7.17,14.71,10.56,10.56,0,0,1-13.77,7.12,12,12,0,0,1-7.17-14.72,10.7,10.7,0,0,1,10.18-7.74m0-1a11.69,11.69,0,0,0-11.13,8.45,13,13,0,0,0,7.79,15.95,11.53,11.53,0,0,0,3.92.69,11.69,11.69,0,0,0,11.14-8.45,13,13,0,0,0-7.79-16,11.59,11.59,0,0,0-3.93-.69Z"/><path d="M506.2,371a5.89,5.89,0,0,1-2.29-.46,6.75,6.75,0,0,1-3.67-8.45,6,6,0,0,1,5.64-4.07,5.89,5.89,0,0,1,2.29.46,6.75,6.75,0,0,1,3.67,8.45A6,6,0,0,1,506.2,371Z"/><path class="cls-15" d="M505.88,358.54a5.5,5.5,0,0,1,2.1.42,6.25,6.25,0,0,1,3.39,7.82,5.45,5.45,0,0,1-7.27,3.32,6.25,6.25,0,0,1-3.39-7.82,5.49,5.49,0,0,1,5.17-3.74m0-1a6.49,6.49,0,0,0-6.11,4.4,7.26,7.26,0,0,0,4,9.09,6.64,6.64,0,0,0,2.48.49,6.49,6.49,0,0,0,6.11-4.41,7.26,7.26,0,0,0-3.95-9.08,6.64,6.64,0,0,0-2.48-.49Z"/><path d="M522.3,325.93a6.08,6.08,0,0,1-2.29-.46,6.76,6.76,0,0,1-3.67-8.45,6,6,0,0,1,5.64-4.08,5.89,5.89,0,0,1,2.29.46,6.75,6.75,0,0,1,3.67,8.45,6,6,0,0,1-5.64,4.08Z"/><path class="cls-15" d="M522,313.44a5.5,5.5,0,0,1,2.1.42,6.25,6.25,0,0,1,3.39,7.82A5.44,5.44,0,0,1,520.2,325a6.26,6.26,0,0,1-3.39-7.83,5.48,5.48,0,0,1,5.17-3.74m0-1a6.5,6.5,0,0,0-6.11,4.41,7.25,7.25,0,0,0,4,9.08,6.43,6.43,0,0,0,8.59-3.91,7.25,7.25,0,0,0-3.95-9.08,6.46,6.46,0,0,0-2.48-.5Z"/><path class="cls-9" d="M516.08,320.52a3.13,3.13,0,0,1-1.2-.24,3.55,3.55,0,0,1-1.93-4.44,3.13,3.13,0,0,1,2.95-2.13,3.08,3.08,0,0,1,1.19.24,3.55,3.55,0,0,1,1.93,4.44,3.11,3.11,0,0,1-2.94,2.13Z"/><path class="cls-15" d="M515.9,314.21a2.48,2.48,0,0,1,1,.2,3,3,0,0,1,1.65,3.81,2.62,2.62,0,0,1-2.47,1.8,2.56,2.56,0,0,1-1-.2,3,3,0,0,1-1.64-3.81,2.62,2.62,0,0,1,2.47-1.8m0-1a3.64,3.64,0,0,0-3.42,2.46,4.07,4.07,0,0,0,2.21,5.08,3.81,3.81,0,0,0,1.39.27,3.63,3.63,0,0,0,3.41-2.46,4,4,0,0,0-2.21-5.08,3.72,3.72,0,0,0-1.38-.27Z"/><path class="cls-9" d="M498.77,364.25a3.12,3.12,0,0,1-1.19-.24,3.56,3.56,0,0,1-1.93-4.45,3.1,3.1,0,0,1,4.14-1.89,3.56,3.56,0,0,1,1.93,4.45,3.13,3.13,0,0,1-2.94,2.13Z"/><path class="cls-15" d="M498.6,357.93a2.7,2.7,0,0,1,1,.2,3.06,3.06,0,0,1,1.65,3.82,2.63,2.63,0,0,1-2.48,1.8,2.7,2.7,0,0,1-1-.2,3.06,3.06,0,0,1-1.65-3.82,2.63,2.63,0,0,1,2.48-1.8m0-1a3.64,3.64,0,0,0-3.42,2.46,4.06,4.06,0,0,0,2.21,5.08,3.59,3.59,0,0,0,4.8-2.19,4.05,4.05,0,0,0-2.21-5.07,3.58,3.58,0,0,0-1.38-.28Z"/><path class="cls-9" d="M532.13,326.36a2,2,0,0,1-.75-.15,2.27,2.27,0,0,1-1.23-2.84,1.94,1.94,0,0,1,2.62-1.2A2.27,2.27,0,0,1,534,325a2,2,0,0,1-1.87,1.35Z"/><path class="cls-15" d="M532,322.51a1.46,1.46,0,0,1,.57.12,1.76,1.76,0,0,1,.95,2.21,1.48,1.48,0,0,1-1.39,1,1.56,1.56,0,0,1-.57-.11,1.77,1.77,0,0,1-1-2.21,1.48,1.48,0,0,1,1.39-1m0-1a2.48,2.48,0,0,0-2.33,1.69,2.76,2.76,0,0,0,1.51,3.47,2.44,2.44,0,0,0,.95.19,2.49,2.49,0,0,0,2.33-1.68A2.78,2.78,0,0,0,533,321.7a2.44,2.44,0,0,0-1-.19Z"/><path class="cls-9" d="M512,369.79a2,2,0,0,1-.76-.16,2.27,2.27,0,0,1-1.23-2.84,2,2,0,0,1,1.87-1.35,2,2,0,0,1,.76.15,2.27,2.27,0,0,1,1.22,2.84A2,2,0,0,1,512,369.79Z"/><path class="cls-15" d="M511.86,365.94a1.55,1.55,0,0,1,.56.11,1.76,1.76,0,0,1,1,2.21,1.48,1.48,0,0,1-1.39,1,1.46,1.46,0,0,1-.57-.12,1.77,1.77,0,0,1-1-2.21,1.5,1.5,0,0,1,1.4-1m0-1a2.5,2.5,0,0,0-2.34,1.68A2.78,2.78,0,0,0,511,370.1a2.47,2.47,0,0,0,3.29-1.5,2.78,2.78,0,0,0-1.51-3.47,2.51,2.51,0,0,0-.95-.19Z"/><g class="cls-16"><path class="cls-17" d="M512.67,366.79c-.8,3-1.37,5.27-3.77,7.57l1.63-1-10.9.45c-.44-.12-1.6-.16-.54.23,3.46,1.25,6.75,2.37,10.15.51s4.32-5.34,5.3-8.78C514.6,365.53,512.79,366.33,512.67,366.79Z"/><path class="cls-17" d="M511.92,368.73a12,12,0,0,1-3.85,7.68l.84-.58-2,.67a7.81,7.81,0,0,1-3.23-.16,33.81,33.81,0,0,1-5.21-1.53c-.21-.07-.87.16-.52.3,3,1.22,7.33,3.39,10.55,1.37,2.88-1.8,3.66-5.43,4.43-8.48C513.05,367.74,512,368.41,511.92,368.73Z"/><path class="cls-17" d="M513.38,365.8c-1,3.79-1.53,6.37-5.63,8.61l5.33-2-6.85,2.11,5.06-1-7.14.89,5.26-.23-7.26-.17,5.17.6-7.16-1.09c-1.31-.2-.21.24.45.44.92.3,1.85.53,2.78.77a7.48,7.48,0,0,0,2.35.53,32.64,32.64,0,0,0,5-1.61,13.93,13.93,0,0,0,2.88-1.17,15.54,15.54,0,0,0,3.06-3.4,24.86,24.86,0,0,0,2.43-6.41c0,.07-2.94,1.41-3,1.43C515.76,364.27,513.55,365.15,513.38,365.8Z"/><path class="cls-17" d="M512.67,366.76a13.7,13.7,0,0,1-1.5,4.29,5.42,5.42,0,0,1-2.33,3.36l3.42-2.25L507.38,375l4-1.82-6,2.07,4.08-1.16-6.13,1,4.16-.47h-6.14l4,.18a37.08,37.08,0,0,0-6.2-.74.42.42,0,0,0-.35.05,3,3,0,0,0,.9.34c.89.24,1.82.39,2.73.54a20.61,20.61,0,0,0,2.71.3,3.15,3.15,0,0,0,2.3,0,17.34,17.34,0,0,0,4.35-2.06c3.35-2.22,4.53-5.94,5.58-9.57,0,.07-2.45,1.37-2.49,1.39C514.52,365.33,512.83,366.12,512.67,366.76Z"/><path class="cls-17" d="M512.3,366.49a27,27,0,0,1-1.38,4.48q-5.6,5.46-11.85,2.11c-.38-.13-1.21-.07-.44.23,2.37.92,5.38,2.42,8,1.86a11.26,11.26,0,0,0,2.33-.8c3-1.36,3.85-5.62,4.6-8.42C513.66,365.62,512.37,366.18,512.3,366.49Z"/><path class="cls-17" d="M513.17,365.5c-1,3.77-1.55,6.44-5.69,8.61l4.66-1.47-6.25,1.59,4.42-.61-6.52.43,4.6.13-8.62-1.11c-1.17-.24-.22.23.36.46.8.31,1.63.57,2.45.84a6.58,6.58,0,0,0,2.06.6,27,27,0,0,0,7.16-1.9c1.25-.46,1.19-.57,2.51-2,2.15-2.28,3-4.94,3.82-7.93,0,0-2.59,1-2.56,1C515.22,364.32,513.32,365,513.17,365.5Z"/><path class="cls-17" d="M512.81,367.45a14.91,14.91,0,0,1-3.83,7.64L513,372l-5.52,3.62,3.79-2.13-5,2,3.47-1.23-10.19.31c.24,0-.88,0-.38.2,3.2,1,6.43,2.21,9.85.41a22,22,0,0,0,2.83-2,12.14,12.14,0,0,0,2.95-2.86,22.52,22.52,0,0,0,2.54-6.58.89.89,0,0,0-.58.26c-.62.45-1.23.92-1.84,1.41S513,366.74,512.81,367.45Z"/><path class="cls-17" d="M512,365.57c-.81,3.07-1.37,5.31-3.85,7.66l1-.53-2.68,1.22,1.79-.49-3.8.62,1.87-.15-7.84-1.52c-.51-.17-.19.13-.11.27.2.36,1.58.77,2,.86,2.42.54,4.62,1.17,7.08.49,4.19-1.14,5.36-5.24,6.38-9C513.9,364.68,512.1,365.23,512,365.57Z"/><path class="cls-17" d="M513.33,366.47c-.8,3.09-1.34,5.31-3.8,7.69l4.15-2.73-5.48,3.32,4.85-2.27-6.8,2.57,5-1.5-7.05,1.36,5.18-.73-7.14.33,5.07.11c-11.25-.95-8.25-.37-3.09.43,4.63.71,9.72-2,12.34-5.86,1.34-2,1.91-4.4,2.55-6.64a1.12,1.12,0,0,0-.69.29c-.78.49-1.55,1-2.31,1.52C515.64,364.68,513.52,365.73,513.33,366.47Z"/><path class="cls-17" d="M512.41,366a13.28,13.28,0,0,1-1.48,4.28,5.35,5.35,0,0,1-2.33,3.33l1.73-1L507,374.33l3-1L505,374.56l3.15-.5-5.23.26,3.24.08-5.25-.61,3.18.58a29.07,29.07,0,0,0-5.49-1.25c-.16,0-.18.07-.06.17s1.87.71,1.87.71a15.41,15.41,0,0,0,5.41.7,11.11,11.11,0,0,0,4.33-1.12c3.62-1.69,4.79-5.85,5.76-9.32a16.74,16.74,0,0,0-1.85.71C513.77,365.13,512.53,365.56,512.41,366Z"/><path class="cls-17" d="M512,365.58c-.89,3.44-1.53,6.83-5.59,8.39l1.29-.25-9.13-1.57c-.41-.14-.18.14-.12.27.13.3,1.24.64,1.56.72,2.5.65,5,1.64,7.62.91,3.83-1.08,4.78-5.46,5.65-8.81C513.36,364.87,512.05,365.31,512,365.58Z"/><path class="cls-17" d="M512.81,367a13.71,13.71,0,0,1-1.49,4.31,5.49,5.49,0,0,1-2.33,3.38l4.87-3.3-6.23,3.84L512.2,373l-6.52,2.52,4.68-1.55-6.7,1.37,4.78-.82-6.74.37,4.65-.06a48.88,48.88,0,0,0-6.83-.46.49.49,0,0,0-.39.07c0,.21,1.88.43,1.52.38,1.05.16,2.11.27,3.16.41,1.24.16,2.51.73,3.71.4a15.53,15.53,0,0,0,2.55-1.19,17.12,17.12,0,0,0,2.69-1.46c3.28-2.48,4.49-6,5.57-9.84a1,1,0,0,0-.66.28c-.75.49-1.48,1-2.21,1.51C515,365.23,513,366.25,512.81,367Z"/></g><g class="cls-16"><path class="cls-17" d="M527.77,315.51c2.35,2.12,4.07,3.67,5.09,6.88l-.25-2.22-4.08,11.36c-.39.53-.19.77.28.21,2.42-2.86,4.51-5.54,4.35-9.38a11,11,0,0,0-.26-2.22c-.76-3-3.14-5.16-5.3-7.18-.31-.29-.18.72-.18.68C527.45,314,527.44,315.22,527.77,315.51Z"/><path class="cls-17" d="M527.64,317.59c2.65,2.38,6.28,5.23,4.36,9.78a24,24,0,0,1-3.8,5.57,2.23,2.23,0,0,0-.52.95c0,.16.11.31.26.15a26.17,26.17,0,0,0,4.13-5.14,9.37,9.37,0,0,0,1.06-4.62c.07-3.63-3.08-6.5-5.51-8.78C527.45,315.34,527.3,317.28,527.64,317.59Z"/><path class="cls-17" d="M527.41,313.9a13.5,13.5,0,0,1,5.26,9.1l.27-5.44-.77,7,1-4.78-1.9,6.72,1.74-4.62L529,330c-.63,1.06.14.28.56-.21.58-.68,1.12-1.4,1.66-2.11a7,7,0,0,0,1.28-1.83,34,34,0,0,0,.66-5.77,14.58,14.58,0,0,0,.08-3,16.44,16.44,0,0,0-1.78-4.4,26.18,26.18,0,0,0-4.63-5.12.93.93,0,0,0-.08.68c0,.83.11,1.67.2,2.5C527,311.28,526.88,313.43,527.41,313.9Z"/><path class="cls-17" d="M527.21,315.17a13.63,13.63,0,0,1,3.14,3.29,6,6,0,0,1,2,5.37l.36-4.4-.91,6.43,1-4.23-1.95,6.14,1.61-4-2.81,5.76,2.13-3.69-3.39,5.37c-.59.92.16.25.51-.17a13.64,13.64,0,0,0,2.53-3.44c3.34-8.78,1-12.84-4.47-18,0,0-.05,2.8-.05,2.81C526.91,312.83,526.75,314.76,527.21,315.17Z"/><path class="cls-17" d="M527.83,315.47l1.75,1.57q3.58,2.25,2.66,6a4,4,0,0,1-.63,3.57,18.77,18.77,0,0,1-3.29,4.56c-.2.24-.58,1.24,0,.65,2.62-2.9,5.3-5.8,5.05-9.94-.2-3.25-3.34-5.9-5.54-7.92C527.57,313.76,527.57,315.23,527.83,315.47Z"/><path class="cls-17" d="M527.31,313.62a13.72,13.72,0,0,1,3.14,3.31,6.56,6.56,0,0,1,2.11,5.83l.29-4.24-.81,5.9.93-3.71-1.84,5.64,1.56-3.55-3.92,7c-.55.83.13.27.51-.1.76-.76,2.21-2,2.56-3l.67-2a9.19,9.19,0,0,0,.6-4.15c0-2.4.19-2.28-.73-4.69-1.15-3-3.16-5-5.47-7.11,0,0,0,2.45,0,2.45C527,311.65,526.87,313.22,527.31,313.62Z"/><path class="cls-17" d="M527.43,316c2.41,2.16,4.09,3.67,5.12,7l-.29-3.11.26,4.71.26-5-.83,7,.9-4.79L531,328.52l1.54-4.54-2.75,6.25,2.06-4.16a51.09,51.09,0,0,0-3.53,6.23c-.06.21,0,.24.15.1.2.1,1.79-2.55,2-2.81,2.72-4.19,3.52-10.21,1.2-14.7-1.08-2.08-3-3.71-4.63-5.29.07.07,0,3.17,0,3.23C527,313.34,526.91,315.57,527.43,316Z"/><path class="cls-17" d="M527.23,314.77a13.34,13.34,0,0,1,3.1,3.26q5.32,5.18-2.57,12.52c-.16.18-.34.39,0,.43s.8-.69.94-.87c1.58-2,3.68-4.27,4-6.95a6.07,6.07,0,0,0-.38-3.52c-1.06-2.54-3-4.25-5-6.07C527.07,313.34,527,314.58,527.23,314.77Z"/><path class="cls-17" d="M527.5,314.83c2.42,2.15,4.11,3.66,5.17,7l-.35-3.48.41,5.57.22-6.19-.77,7.64,1-5.44-1.92,7.35L533,322l-2.88,7,2.41-4.82-3.61,6.51c-.66,1.19.15.27.57-.29.58-.78,1.12-1.6,1.67-2.42a8.55,8.55,0,0,0,1.29-2.07c2.27-8.94-.07-13.12-5.66-18.35a1.26,1.26,0,0,0-.08.77q.09,1.46.24,2.88C527,311.77,526.93,314.31,527.5,314.83Z"/><path class="cls-17" d="M527.18,314.58a26.79,26.79,0,0,1,3.24,3.15,7.43,7.43,0,0,1,1.83,3.76l-.17-1.65.17,3.53.26-2.66-.84,4.69.71-2.52-1.71,4.43,1.17-2.36-3.72,5.73c-.43.58.17.22.42,0a8,8,0,0,0,1.81-2A16.55,16.55,0,0,0,532.8,321c0-4.12-2.87-7-5.69-9.63-.31-.29-.22,1.06-.21,1.18C526.91,313.06,526.77,314.22,527.18,314.58Z"/><path class="cls-17" d="M527.58,315a13.31,13.31,0,0,1,3.9,3.94q4.21,5.22-3.77,11.84c-.43.5.37.17.58-.07,2.1-2.45,4.42-4.84,4.74-8.17.36-3.76-2.73-6.18-5.38-8.38C527.39,313.91,527.39,314.81,527.58,315Z"/><path class="cls-17" d="M527.24,315.42c3,2.67,5,4.32,5.2,9.1l.41-5.93-1,7.41,1.12-5.2-2.09,7.1,1.83-5-3,6.71,2.43-4.58c-5.87,10-4,7.49-1,3.08,2.73-4.05,2.71-10,.45-14.33-1.1-2.1-3-3.72-4.7-5.31a1.17,1.17,0,0,0-.11.74c0,.91.05,1.82.1,2.74C526.9,312.47,526.71,315,527.24,315.42Z"/></g><path class="cls-18" d="M537,346.34c-.46.28-9.55,6-5.23,10.12.68.65,1.88,1.43,10.69,4,10.91,3.15,16.37,4.72,17.27,3.62,1.44-1.78-6.22-8.18-11.89-11.92A69.29,69.29,0,0,0,537,346.34Z"/><path class="cls-19" d="M512.37,282.49c-.62-.22-1.25-2.84-2.5-8.05-.43-1.75-.78-3.3-.86-3.64-.28-1.21-.5-2.21-.66-2.9a10.27,10.27,0,0,1,3.2,1,11.17,11.17,0,0,1,2.17,1.41c.71.6,4.09,3.46,3.66,7.08C517,280.39,514,283.07,512.37,282.49Z"/><path class="cls-19" d="M473.4,378.34c-.71-.32-2.91.64-7.27,2.55-1.48.64-2.76,1.22-3.05,1.35l-2.39,1.09a18.62,18.62,0,0,0,3.58,1.75,18.31,18.31,0,0,0,2.89.78c1,.19,5.94,1.05,7.76-1.2C476.44,382.77,475.29,379.19,473.4,378.34Z"/><path class="cls-19" d="M480.38,387.05c-1.93-.89-3.88,1.83-9,4.58a37.79,37.79,0,0,1-11.58,3.93,27.53,27.53,0,0,0,12.29,3.16c3.48,0,7.49.06,9.41-2.7C483.56,393.1,482.55,388.05,480.38,387.05Z"/><path class="cls-19" d="M521.6,282.49c-1.87-.68-1.56-4.17-3.38-9.9a42,42,0,0,0-5.58-11.23,25.19,25.19,0,0,1,10.41,6.26c2.42,2.43,5.21,5.25,4.84,8.75C527.5,280.05,523.71,283.25,521.6,282.49Z"/><ellipse class="cls-10" cx="579.81" cy="416.53" rx="41.62" ry="48.38" transform="translate(-116.6 259.41) rotate(-22.98)"/><path class="cls-18" d="M643.21,453.64c3.83,2.44,5.45,6.44,6.68,9.44,1.49,3.68,2.61,8.81,1.43,9.41-.7.36-1.86-1-8.3-7.78-4.11-4.31-5.45-5.65-5.72-5.43-.43.34,1.74,4.32,3.15,6.62a24.37,24.37,0,0,1,3,5.9c.44,1.37.92,2.86.38,3.3-.37.31-1.33.19-6.58-4s-6.72-5.91-7.34-5.47.23,3.76,1.91,6.33c2.46,3.78,5.6,4.67,5.34,5.52s-4.79,1.36-7.91-1.09c-2.84-2.24-3.41-5.93-4.11-10.48-.77-5-1.16-7.5.09-9.77C628.09,451.09,637.31,449.9,643.21,453.64Z"/><path class="cls-18" d="M605.93,481c3.83,2.43,5.46,6.44,6.68,9.44,1.49,3.68,2.61,8.81,1.43,9.41-.69.36-1.86-1-8.3-7.78-4.11-4.32-5.45-5.65-5.72-5.43-.43.34,1.74,4.32,3.15,6.62a24.37,24.37,0,0,1,3.05,5.9c.44,1.36.92,2.86.39,3.3s-1.34.18-6.59-4-6.72-5.92-7.34-5.47.23,3.76,1.91,6.33c2.46,3.77,5.6,4.66,5.34,5.52s-4.79,1.36-7.91-1.1c-2.84-2.23-3.41-5.93-4.11-10.47-.77-5-1.16-7.5.09-9.77C590.81,478.39,600,477.21,605.93,481Z"/><path d="M512.69,281.44c-1.79.35-16.25,3.47-23.36,18.31-6.73,14.06-1.54,27.57-.76,29.52a33.71,33.71,0,0,0-17.2,20.3c-4.74,15.77,3.7,28.95,4.72,30.47L438,352.77l29.29-79.37Z"/><path d="M512.69,281.44A34.78,34.78,0,0,0,499,287.93a33,33,0,0,0-9.43,11.74,36,36,0,0,0-3.39,14.66,39.67,39.67,0,0,0,2.64,14.83l.1.26-.25.12a33.59,33.59,0,0,0-11.26,9.17,31.94,31.94,0,0,0-6.25,13.09,13.84,13.84,0,0,0-.36,1.79l-.28,1.81-.14,1.82-.07.91v.92a34.75,34.75,0,0,0,.69,7.26,37.84,37.84,0,0,0,2.09,7,36.41,36.41,0,0,0,3.32,6.49l1.26,1.93-1.87-1.33-19.1-13.6-19.05-13.66-.28-.2.12-.33L467,273.3l.08-.21.22,0c7.62,1.35,15.23,2.79,22.79,4.19Zm0,0-22.83-3.92c-7.59-1.28-15.12-2.53-22.65-3.86l.3-.17-29.12,79.44-.16-.54L457.31,366l19,13.68-.61.59a36.57,36.57,0,0,1-3.38-6.66,38.66,38.66,0,0,1-2.09-7.16,34.86,34.86,0,0,1-.68-7.42v-.94l.07-.93.15-1.86.3-1.84a14.12,14.12,0,0,1,.37-1.83,35,35,0,0,1,2.46-7A34.08,34.08,0,0,1,488.44,329l-.15.39a40.19,40.19,0,0,1-2.61-15.07,35.12,35.12,0,0,1,3.56-14.82,33.34,33.34,0,0,1,9.67-11.73A35.08,35.08,0,0,1,512.69,281.44Z"/><path class="cls-20" d="M483.73,239.12q-.57,12-1.12,23.94-5.14,29.1-10.27,58.19l-44.22,62.86q5.26-37.65,10.54-75.29Z"/><path class="cls-21" d="M434.33,361.16c.24-.14,8.24,13.8,17.07,28.82.82,1.4,2.06,3.44,4.55,7.53,4.12,6.75,4.94,8,5.47,8.55l.23.24c2.06,2.11,2.71,3.07,3.45,3.81,1.89,1.92,2.93,1,4.63,2.64a8.22,8.22,0,0,1,2.26,5,4.83,4.83,0,0,1-1.23,3.62c-.84.79-1.86.89-3.52,1.07a3.74,3.74,0,0,1-4.63-2.64c-.72-1.87-.08-3.31.08-4.89.3-3.05-1.34-5.53-3.37-8.69-3.17-4.93-6-10.06-9.11-15.05-2.52-4.06-5.09-9-10.22-18.75C437.64,367.91,434.16,361.26,434.33,361.16Z"/><path class="cls-21" d="M465,419.88c-.41,1.3,1.73,2,2.25,5,.33,1.82-.36,2.29-.07,4.88.18,1.73.3,3.05,1.11,3.71,2.48,2.05,9.56-1.65,9.41-4.48-.08-1.68-2.64-1.66-4.59-5.08-1.44-2.54-.86-4-2.26-5C468.88,417.53,465.41,418.36,465,419.88Z"/><path class="cls-22" d="M601.49,651.5c-32.44-22.74-15.58-58.65-41-151-11.55-42-22.37-62.89-15.5-67.5,8.8-5.88,40.28,19.15,60,48,47.64,69.71,26.55,161.53,24.5,161.5s18.08-98.12-16-231c-12.86-50.14-27.73-82.94-18.5-88.5,11.87-7.13,55.47,35.59,81.5,82.5,10.41,18.76,38.13,70.35,30,136-6.63,53.55-35.87,109-48,106C640,643,634.25,496,714,410c27.42-29.55,65.39-52.38,74-45,6.75,5.79-7.41,27.6-28,91-6.56,20.22-11.73,36.15-16.5,56.5-15.86,67.78-2.09,85.88-23,114-8.28,11.15-25.56,34.39-56,40C632.53,672.41,606.6,655.09,601.49,651.5Z"/><path class="cls-8" d="M208,612.65c-9.37,33.64-41.42,49.45-48.13,52.54-8,3.71-27.94,12.9-51.66,6.75-28.09-7.29-41.87-31-47.24-40.24-4.28-7.38-17.56-30.23-12.72-56.64,6.89-37.64,49.78-78.21,99.93-66.41C197.35,520.24,218.71,574.08,208,612.65Z"/><path class="cls-8" d="M148,513.49a43.31,43.31,0,0,1-16.08-5.82,37,37,0,0,1-16.33-23"/><path class="cls-8" d="M164.13,555.44c-2.23,1.32-16.8-13.84-18.74-33-.3-3-.72-7.12.36-7.45C149.25,514,167.38,553.53,164.13,555.44Z"/><path class="cls-8" d="M230.33,554.16C213,568,186.61,570.94,170,560.5c-12-7.5-8.8-15.6-26.65-41.34s-26.12-25.06-29.84-39.33c-5-19,3.37-44.94,23.39-58.48,25.11-17,56.5-6.33,71.72,6,7.17,5.83,12.08,13.06,21.84,27.41,9.05,13.33,13.82,20.34,16.78,28.92C253.59,502.21,253.86,535.4,230.33,554.16Z"/><ellipse class="cls-9" cx="204.93" cy="509.5" rx="29.09" ry="30.09" transform="translate(-255.89 210.79) rotate(-35.14)"/><path class="cls-10" d="M226,542.43c-25.15,18.63-63.27-2.49-71.55-16.15-.69-1.14-3.34-5.8-7.69-12.62-5.61-8.79-9.87-14.59-10.77-15.89-9.1-13.15-13.51-53.3,10.44-68.41,15-9.46,37.81-7,49,4.25,9.47,9.54,3.86,18.64,14.59,32.16,11.35,14.3,22.74,10.57,29.83,21.84C249,502.21,243.22,529.66,226,542.43Z"/><path class="cls-9" d="M166.23,484.58A25.36,25.36,0,1,1,180.8,480,25.43,25.43,0,0,1,166.23,484.58Z"/><path d="M166.18,433.36v1h0a24.86,24.86,0,0,1,14.33,45.19,24.65,24.65,0,0,1-14.28,4.53,24.86,24.86,0,1,1,0-49.72v-1m0,0a25.86,25.86,0,1,0,21.17,11,25.76,25.76,0,0,0-21.17-11Z"/><g class="cls-11"><path class="cls-9" d="M212,548c-11.82,0-25.37-7.07-32.22-16.81-8.68-12.34-6.56-28.89-6.29-30.73a43.31,43.31,0,0,1,1.66-7.08l.26-.82-.84.18a33,33,0,0,1-6.77.7c-.38,0-.76,0-1.16,0-11.4-.41-23-7-29.49-16.75-9.64-14.46-9.53-38.31,5-48.57A29,29,0,0,1,159,422.88c11.73,0,23.17,6.3,30.6,16.85,2.57,3.65,5.88,13.48,7.29,19.17.73,3,1.25,6,1.26,6,.43,2.52.75,5.08,1,7.63l0,.32.31.11c2.13.77,4.25,1.64,6.32,2.58a97.11,97.11,0,0,1,8.67,4.62c2.14,1.31,13,8.15,17.4,14.35,11.83,16.82,9.79,38.72-4.56,48.82A26,26,0,0,1,212,548Z"/><path d="M159,423.38c11.57,0,22.86,6.22,30.19,16.64,2.53,3.6,5.82,13.35,7.21,19,.73,2.94,1.25,6,1.26,6,.43,2.5.75,5.05,1,7.58l0,.64.61.22c2.11.76,4.23,1.63,6.28,2.57a92.41,92.41,0,0,1,8.62,4.59c2.12,1.3,12.94,8.09,17.25,14.21C243.07,511.42,241.08,533,227,543a25.51,25.51,0,0,1-15,4.54c-11.67,0-25-7-31.81-16.6-8.57-12.19-6.47-28.55-6.2-30.37a42.31,42.31,0,0,1,1.63-7l.53-1.64-1.68.36a32.77,32.77,0,0,1-6.67.69c-.37,0-.75,0-1.14,0-11.25-.4-22.67-6.89-29.09-16.53A42.52,42.52,0,0,1,131,451.22c.55-9.82,4.63-17.89,11.49-22.72A28.51,28.51,0,0,1,159,423.38m0-1a29.4,29.4,0,0,0-17.1,5.31c-15.54,10.93-14.5,35.25-5.17,49.25,6.2,9.3,17.72,16.53,29.89,17,.4,0,.79,0,1.17,0a33.88,33.88,0,0,0,6.87-.71,44.5,44.5,0,0,0-1.67,7.15c-.21,1.45-2.49,18.49,6.37,31.1,6.61,9.4,19.91,17,32.63,17a26.63,26.63,0,0,0,15.56-4.72c14.6-10.28,16.7-32.44,4.68-49.52-3.92-5.58-13.09-11.76-17.54-14.49a94.18,94.18,0,0,0-8.73-4.64c-2.43-1.11-4.59-2-6.35-2.6-.18-2.13-.46-4.73-1-7.67,0,0-.52-3.06-1.26-6.07-1.45-5.84-4.79-15.67-7.37-19.34-7.74-11-19.61-17.06-31-17.06Z"/></g><path class="cls-9" d="M203.06,533.46a25.37,25.37,0,1,1,14.57-4.62A25.12,25.12,0,0,1,203.06,533.46Z"/><path d="M203,482.24v1h0a24.87,24.87,0,1,1-14.29,4.53A24.65,24.65,0,0,1,203,483.24v-1m0,0a25.86,25.86,0,1,0,21.18,11,25.78,25.78,0,0,0-21.18-11Z"/><path class="cls-12" d="M203.05,525.51a17.47,17.47,0,0,1-14.25-7.39,17.39,17.39,0,1,1,14.25,7.39Z"/><path d="M203,490.19v1h0a16.92,16.92,0,1,1-9.71,3.09,16.75,16.75,0,0,1,9.71-3.09v-1m0,0a17.91,17.91,0,1,0,14.66,7.61A17.79,17.79,0,0,0,203,490.19Z"/><path class="cls-12" d="M168.75,478.49a17.4,17.4,0,0,1-10-31.63,17.25,17.25,0,0,1,10-3.18,17.41,17.41,0,0,1,10,31.64A17.26,17.26,0,0,1,168.75,478.49Z"/><path d="M168.72,443.18v1a16.9,16.9,0,0,1,9.74,30.73,16.74,16.74,0,0,1-9.71,3.08,16.91,16.91,0,1,1,0-33.81v-1m0,0a17.91,17.91,0,1,0,14.66,7.6,17.79,17.79,0,0,0-14.66-7.6Z"/><path class="cls-23" d="M203.39,522.83a14.67,14.67,0,1,1,9.36-3.38A14.61,14.61,0,0,1,203.39,522.83Z"/><path d="M203.38,494h0a14.17,14.17,0,1,1-9,3.27,14.13,14.13,0,0,1,9-3.27m0-1a15.17,15.17,0,1,0,11.67,5.48A15.14,15.14,0,0,0,203.38,493Z"/><path class="cls-24" d="M168.4,475.7a14.68,14.68,0,1,1,7.87-2.3A14.62,14.62,0,0,1,168.4,475.7Z"/><path d="M168.37,445.86v1h0a14.17,14.17,0,1,1-7.59,2.22,14.12,14.12,0,0,1,7.59-2.22v-1m0,0a15.17,15.17,0,1,0,12.81,7,15.09,15.09,0,0,0-12.81-7Z"/><path d="M203,516.06a8,8,0,0,1-7.84-9.32,8,8,0,0,1,7.83-6.59,8,8,0,0,1,6.51,3.37,8,8,0,0,1-1.92,11.09A8,8,0,0,1,203,516.06Z"/><path class="cls-15" d="M203,500.64h0a7.47,7.47,0,1,1-4.28,1.36,7.38,7.38,0,0,1,4.28-1.36m0-1a8.46,8.46,0,0,0,0,16.92A8.35,8.35,0,0,0,207.9,515,8.45,8.45,0,0,0,203,499.64Z"/><path d="M169.27,468.06a8,8,0,1,1,4.57-1.45A8,8,0,0,1,169.27,468.06Z"/><path class="cls-15" d="M169.25,452.65h0a7.47,7.47,0,0,1,7.36,8.74,7.46,7.46,0,1,1-7.36-8.74m0-1a8.46,8.46,0,1,0,6.92,3.59,8.43,8.43,0,0,0-6.92-3.59Z"/><path class="cls-9" d="M176.12,459.81a4.22,4.22,0,1,1,2.43-.77A4.17,4.17,0,0,1,176.12,459.81Z"/><path class="cls-15" d="M176.11,451.86h0a3.73,3.73,0,1,1-2.14.68,3.75,3.75,0,0,1,2.14-.68m0-1a4.62,4.62,0,0,0-2.71.87,4.7,4.7,0,1,0,2.71-.87Z"/><path class="cls-9" d="M211,505.85a4.22,4.22,0,1,1,2.43-.77A4.22,4.22,0,0,1,211,505.85Z"/><path class="cls-15" d="M210.94,497.9h0a3.74,3.74,0,0,1,3.05,1.58,3.66,3.66,0,0,1,.62,2.78,3.72,3.72,0,0,1-3.66,3.09,3.72,3.72,0,0,1-2.15-6.77,3.65,3.65,0,0,1,2.14-.68m0-1a4.73,4.73,0,1,0,2.72,8.59,4.72,4.72,0,0,0-2.72-8.59Z"/><path class="cls-9" d="M158.51,471.32a2.73,2.73,0,1,1,1.57-.5A2.69,2.69,0,0,1,158.51,471.32Z"/><path class="cls-15" d="M158.5,466.36h0a2.24,2.24,0,0,1,2.21,2.61,2.22,2.22,0,0,1-2.2,1.85,2.23,2.23,0,1,1,0-4.46m0-1a3.18,3.18,0,0,0-1.85.59,3.23,3.23,0,1,0,1.85-.59Z"/><path class="cls-9" d="M196.76,516.17a2.73,2.73,0,0,1-1.58-5,2.73,2.73,0,0,1,3.15,4.47A2.79,2.79,0,0,1,196.76,516.17Z"/><path class="cls-15" d="M196.75,511.2h0a2.23,2.23,0,0,1,1.29,4.06,2.19,2.19,0,0,1-1.28.41,2.23,2.23,0,0,1-1.29-4.06,2.19,2.19,0,0,1,1.28-.41m0-1a3.24,3.24,0,0,0,0,6.47,3.3,3.3,0,0,0,1.86-.59,3.24,3.24,0,0,0-1.87-5.88Z"/><g class="cls-16"><path class="cls-17" d="M186.42,516.51c1.94,3.45,4.07,7.28,7.76,9.16,5.71,2.91,12.44,1,18.17-.68-.08,0-1.24-1.91-1.84-1.76-3.65.95-7.29,1.86-11.09,1.42a12.33,12.33,0,0,1-9.28-5.41,41,41,0,0,1-3-5c-.19-.35-.4.54-.4.53C186.64,515.09,186.22,516.16,186.42,516.51Z"/><path class="cls-17" d="M186.11,518.57c2,3.56,4.22,7.4,8.07,9.27,5.88,2.86,12.7.82,18.53-1,.24-.07-.32-1.52-.65-1.43-3.88,1.1-7.77,2.21-11.85,1.85a14,14,0,0,1-10.43-5.54,41.34,41.34,0,0,1-3.09-5C186.56,516.48,185.9,518.2,186.11,518.57Z"/><path class="cls-17" d="M186.5,515c2.37,4.26,5.13,8.92,10.3,10,4.93,1,9.68-.18,14.44-1.47.11,0-2-2.46-2-2.41-.19-.21-1.72-2.25-2.24-2.16-3.31.61-7.6,1.3-10.82-.18-3.9-1.79-6-6.21-7.82-9.87,0,.06-1.12,2.95-1.13,3C187.12,512.29,186.18,514.37,186.5,515Z"/><path class="cls-17" d="M186.07,516.21c2.41,4.3,5.22,8.95,10.46,10,5,1,9.89-.28,14.73-1.64.17-.05-1.53-2.12-1.48-2.07-.16-.18-1.33-1.91-1.78-1.82-3.76.74-8.31,1.54-12,0l-2.31-1.17-1.4-1.61a35.2,35.2,0,0,1-4.5-7.12s-1,2.65-1,2.66C186.62,513.85,185.77,515.67,186.07,516.21Z"/><path class="cls-17" d="M186.29,516.46c2.34,4.06,4.89,8.17,9.55,9.69,5.69,1.86,11.39.24,16.9-1.47.14,0-.61-1.27-1-1.15-4.29,1.31-8.44,2.46-13,1.81a6.72,6.72,0,0,1-4.14-1.59,6.31,6.31,0,0,1-3.65-2.47,34.55,34.55,0,0,1-4.16-6.12C186.64,514.87,186.14,516.19,186.29,516.46Z"/><path class="cls-17" d="M186.38,514.67c2.36,4.26,5.11,8.92,10.27,10,4.95,1.06,9.74-.16,14.51-1.45a15.37,15.37,0,0,0-1.58-1.83c-.21-.21-1.37-1.66-1.85-1.57-3.58.72-8,1.51-11.54,0a9.37,9.37,0,0,1-3.65-2.75A33.22,33.22,0,0,1,188,510s-1,2.31-1,2.29C186.89,512.64,186.11,514.19,186.38,514.67Z"/><path class="cls-17" d="M186.23,517c2.42,4.33,5.24,9,10.53,10.08,5.08,1,10-.36,14.82-1.75A19.2,19.2,0,0,0,210,523c-.13-.16-1.47-2.26-1.93-2.17-3.74.74-8.28,1.55-12,0l-2.3-1.17L192.35,518a35.09,35.09,0,0,1-4.51-7.16,1,1,0,0,0-.32.61c-.24.81-.46,1.62-.67,2.44C186.72,514.39,185.89,516.43,186.23,517Z"/><path class="cls-17" d="M185.71,515.65c2.32,4.05,4.86,8.16,9.5,9.7,5.72,1.9,11.36.35,16.92-1.39.42-.13-.33-1-.52-1-4.44,1.38-8.61,2.56-13.3,1.8a7.1,7.1,0,0,1-4.23-1.69,6.53,6.53,0,0,1-3.66-2.52,33.88,33.88,0,0,1-4.08-6C186.15,514.2,185.57,515.41,185.71,515.65Z"/><path class="cls-17" d="M186.48,515.83c2.4,4.3,5.2,9,10.43,10,5,1,9.77-.27,14.57-1.6.12,0-2.13-2.86-2.07-2.8-.16-.19-1.85-2.66-2.36-2.56-3.32.63-7.61,1.33-10.84-.14-3.92-1.79-6-6.26-7.85-9.93a1.26,1.26,0,0,0-.34.69c-.28.92-.54,1.83-.78,2.76C187.1,512.8,186.12,515.18,186.48,515.83Z"/><path class="cls-17" d="M186,515.58c2.43,4.3,5.25,8.86,10.44,10s10.05-.14,15-1.52c.2,0-1-1.22-1-1.18-.2-.19-.83-1-1.21-.91-4,.88-7.85,1.6-11.88.62a5.59,5.59,0,0,1-3.42-1.73,7.07,7.07,0,0,1-3-2.48,34,34,0,0,1-3.79-6c-.07-.13-.79,1.6-.77,1.54C186.25,514.23,185.73,515.2,186,515.58Z"/><path class="cls-17" d="M185.88,515.89c2.42,4,5.09,8,9.73,9.49,5.7,1.81,11.4.19,16.92-1.52.4-.13-.26-.94-.45-.87-4.4,1.38-8.69,2.64-13.36,2a6.92,6.92,0,0,1-4.23-1.55,6.89,6.89,0,0,1-3.77-2.41,34.82,34.82,0,0,1-4.4-5.9C186.12,514.85,185.76,515.69,185.88,515.89Z"/><path class="cls-17" d="M186.12,516.46c2.42,4.32,5.24,9,10.52,10,5,1,9.83-.37,14.65-1.74a20,20,0,0,0-1.72-2.64c-.11-.16-1.55-2.51-2-2.42-3.51.7-7.92,1.49-11.37,0L194,518.53l-1.41-1.62a35.37,35.37,0,0,1-4.49-7.15,1.12,1.12,0,0,0-.35.66c-.29.87-.57,1.75-.82,2.63C186.8,513.53,185.78,515.84,186.12,516.46Z"/></g><g class="cls-16"><path class="cls-17" d="M153.91,450.12c-2.33,3.19-4.92,6.72-5.1,10.84-.27,6.45,4.26,11.78,8.2,16.32,0,0,1-1.61.73-1.93-2.46-3-4.9-6-6.1-9.71a12.72,12.72,0,0,1,1-10.84A40.28,40.28,0,0,1,156,450C156.12,449.76,154.16,449.77,153.91,450.12Z"/><path class="cls-17" d="M153,451.71c-3,4.32-5.64,8.81-4.48,14.28,1.13,5.31,4.8,9.47,8.3,13.39.12.14.95-1,.68-1.27-2.67-3-5.44-6-7-9.75a12.2,12.2,0,0,1-.81-8.93,23.82,23.82,0,0,1,4.07-7.69C154.08,451.32,153.12,451.52,153,451.71Z"/><path class="cls-17" d="M154.69,449.61c-2.89,3.95-6,8.4-4.75,13.57,1.15,4.9,4.28,8.68,7.44,12.45a21.61,21.61,0,0,0,1.56-2.65c.1-.2,1.51-2.43,1.23-2.82-1.95-2.75-4.37-6.35-4.37-9.89,0-4.29,3.12-8,5.68-11.17,0,0-3.39.06-3.41.07C157.65,449.2,155.08,449.09,154.69,449.61Z"/><path class="cls-17" d="M154,450.35c-2.91,4-6,8.47-4.8,13.68,1.15,5,4.35,8.92,7.6,12.77a16.86,16.86,0,0,0,1.23-2.39c.1-.23,1.16-2.14.88-2.53-2.24-3.09-4.89-6.88-5-10.87l.1-2.58.9-2a35.14,35.14,0,0,1,4.61-7.08s-2.74.3-2.78.3C156.24,449.76,154.38,449.83,154,450.35Z"/><path class="cls-17" d="M153.54,449.63c-2.37,3.3-4.95,6.91-5.06,11.16-.18,6.57,4.48,11.93,8.55,16.49.17.19.92-.7.7-.95-2.67-3-5.33-6-6.7-9.89a14,14,0,0,1,.74-11.83,40.38,40.38,0,0,1,3.27-4.92C155.25,449.39,153.72,449.38,153.54,449.63Z"/><path class="cls-17" d="M154.43,449.25c-2.91,4-6,8.41-4.74,13.6,1.17,4.92,4.32,8.73,7.51,12.52.12.14,1.37-2.12,1.34-2.06.09-.18,1.25-1.89,1-2.23-2.12-3-4.67-6.67-4.74-10.49a9.41,9.41,0,0,1,1-4.4,33.5,33.5,0,0,1,4.58-7s-3-.15-3-.15C157,449,154.76,448.8,154.43,449.25Z"/><path class="cls-17" d="M154.2,451c-2.92,4-6,8.5-4.85,13.71s4.33,9,7.59,12.9a27.52,27.52,0,0,0,1.17-2.68c.1-.28,1.12-2.38.8-2.81-2.27-3.06-5-6.83-5.14-10.82l.07-2.57.91-2a34.75,34.75,0,0,1,4.62-7.14.76.76,0,0,0-.59,0c-.68.16-1.37.34-2.05.54S154.6,450.43,154.2,451Z"/><path class="cls-17" d="M153.32,448.92c-3,4.11-5.93,8.55-4.79,13.89s4.45,9.49,7.93,13.59c.17.2,1-.7.84-1-1.24-1.6-2.51-3.18-3.6-4.88a19.36,19.36,0,0,1-2.84-7.14,19.32,19.32,0,0,1,1-8.32,35.17,35.17,0,0,1,4-6.09c.12-.17-1.33-.24-1.27-.23C154.32,448.77,153.53,448.63,153.32,448.92Z"/><path class="cls-17" d="M154.75,450.22c-2.9,3.95-6,8.43-4.83,13.61,1.12,5,4.25,8.79,7.43,12.6.07.09,1.56-3.11,1.53-3,.11-.25,1.51-2.75,1.19-3.2-1.94-2.75-4.36-6.36-4.35-9.91,0-4.32,3.2-8.07,5.77-11.28a1.14,1.14,0,0,0-.73,0c-.89.13-1.78.28-2.67.44C157.56,449.52,155.18,449.63,154.75,450.22Z"/><path class="cls-17" d="M153.67,449.52c-2.92,4-5.9,8.48-4.72,13.71,1.14,5.08,4.35,9,7.63,12.92-.08-.09,1.84-2.43,1.43-3-2.5-3.44-5.28-7.41-5.48-11.84l.06-2.8.83-2A32.54,32.54,0,0,1,158,449.3a19.41,19.41,0,0,0-2.16-.08C155.46,449.24,154,449.12,153.67,449.52Z"/><path class="cls-17" d="M153.38,448.7c-2.29,3.15-5.14,6.91-5.12,11.05,0,6.81,4.17,11.85,8.46,16.65.19.21.86-.48.66-.7-2.3-2.64-4.71-5.25-6-8.55a16.51,16.51,0,0,1-1.29-4.59,21.34,21.34,0,0,1,5-13.59C155.36,448.66,153.56,448.44,153.38,448.7Z"/><path class="cls-17" d="M154.23,450.61c-2.92,4-6,8.49-4.84,13.71,1.13,5,4.32,8.88,7.55,12.73.07.09,1.52-3,1.49-2.91.1-.23,1.46-2.64,1.15-3.06-2.1-2.9-4.66-6.58-4.75-10.33l.13-2.45.92-2a35,35,0,0,1,4.66-7.09,1.05,1.05,0,0,0-.7,0c-.83.16-1.67.33-2.5.53C156.79,449.84,154.67,450,154.23,450.61Z"/></g><path class="cls-18" d="M159.28,495.94c.64.19,13.6,4.18,9.57,10.3-.64,1-1.87,2.22-11.93,7.78-12.46,6.9-18.69,10.34-20.13,9.31-2.32-1.65,5.11-11.39,10.94-17.43A87.05,87.05,0,0,1,159.28,495.94Z"/><path class="cls-19" d="M169.85,414c.69-.43.66-3.68.59-10.13,0-2.18-.07-4.1-.08-4.52,0-1.49-.06-2.73-.09-3.58a13.34,13.34,0,0,0-3.63,2.08,13.77,13.77,0,0,0-2.24,2.29c-.69.9-4,5.24-2.31,9.35C163.48,413,168,415.2,169.85,414Z"/><path class="cls-19" d="M247.48,514.65c.78-.58,3.78-.11,9.74.84l4.17.68,3.28.57a23.07,23.07,0,0,1-3.86,3.1,24.17,24.17,0,0,1-3.32,1.77c-1.2.51-7,3-9.92.87C245.11,520.72,245.42,516.2,247.48,514.65Z"/><path class="cls-19" d="M241.58,526.88c2.1-1.6,5.36,1,12.47,2.72a50.36,50.36,0,0,0,15.47,1.19,35.65,35.65,0,0,1-14.15,7.31c-4.27,1-9.21,2.27-12.42-.39C239.55,534.89,239.22,528.69,241.58,526.88Z"/><path class="cls-19" d="M158.48,416.75c2.1-1.34.63-5.32,1.1-12.56a48.36,48.36,0,0,1,3.4-14.78,31.09,31.09,0,0,0-10.88,10.38c-2.22,3.56-4.79,7.68-3.25,11.66C150.47,415.64,156.12,418.27,158.48,416.75Z"/><ellipse class="cls-10" cx="128.34" cy="590.59" rx="58.44" ry="52.72" transform="translate(-475.95 580.22) rotate(-76.76)"/><path class="cls-18" d="M61.81,652.64c-4,4-4.72,9.13-5.29,13-.7,4.74-.49,11.06,1.15,11.42,1,.22,2-1.74,7.8-11.54,3.72-6.25,5-8.21,5.36-8,.64.28-.8,5.56-1.83,8.67A28.4,28.4,0,0,0,67.07,674c-.11,1.73-.24,3.62.55,4,.56.25,1.71-.18,6.88-6.56s6.44-8.89,7.35-8.56.88,4.47-.39,8c-1.87,5.14-5.45,7.1-4.87,8s6.32.18,9.4-3.61c2.8-3.44,2.35-7.93,1.81-13.45-.6-6.08-.9-9.11-3.14-11.4C79.63,645.2,67.91,646.52,61.81,652.64Z"/><path class="cls-18" d="M116.15,673.6c-4,4-4.73,9.13-5.3,13-.7,4.74-.49,11.07,1.15,11.43,1,.21,2-1.75,7.8-11.55,3.72-6.25,5-8.2,5.37-8,.63.28-.81,5.56-1.83,8.67a27.78,27.78,0,0,0-1.93,7.8c-.12,1.72-.24,3.61.55,4,.55.25,1.7-.18,6.87-6.56s6.45-8.89,7.35-8.55.88,4.46-.39,8c-1.87,5.14-5.45,7.1-4.87,8s6.32.19,9.4-3.6c2.81-3.45,2.36-7.94,1.81-13.46-.59-6.07-.89-9.11-3.13-11.4C134,666.16,122.25,667.49,116.15,673.6Z"/><path d="M169.12,412.91c2.32-.12,21.08-.73,34.42,14.53,12.64,14.47,10.44,31.79,10.08,34.3,2.66.52,18.09,3.81,27.45,18.67,10.72,17,4.41,34.93,3.63,37l38.48-43.11-60.63-84.18Z"/><path d="M169.12,412.91a46.73,46.73,0,0,1,18.48,3.17,46.13,46.13,0,0,1,8.34,4.4,42,42,0,0,1,3.74,2.9c.58.54,1.21,1,1.75,1.59l1.65,1.7a20.29,20.29,0,0,1,1.55,1.79c.49.62,1,1.21,1.47,1.86a43.47,43.47,0,0,1,2.56,4,44,44,0,0,1,2.11,4.24c.58,1.48,1.16,2.95,1.59,4.47a46,46,0,0,1,1.56,18.77l-.24-.34a44.68,44.68,0,0,1,16.65,7.21,40.84,40.84,0,0,1,17.23,30.9,45.68,45.68,0,0,1-.34,9.13,44.16,44.16,0,0,1-2.11,8.9l-.73-.44,19.2-21.59L282.83,474l0,.57L222.34,390.3l.32.09Zm0,0,53.33-23,.2-.08.12.17,60.78,84.07.22.3-.25.28L264.3,496.2,245,517.72l-1.49,1.66.76-2.1a42.56,42.56,0,0,0,2.1-8.71,44.87,44.87,0,0,0,.37-9,40.07,40.07,0,0,0-16.82-30.4A43.71,43.71,0,0,0,213.56,462l-.28-.06,0-.28a45.23,45.23,0,0,0-1.48-18.54,43.68,43.68,0,0,0-1.55-4.42,41.76,41.76,0,0,0-2.07-4.19,38.83,38.83,0,0,0-2.49-4c-.44-.64-1-1.23-1.43-1.85a20,20,0,0,0-1.52-1.79l-1.61-1.71c-.53-.57-1.15-1.05-1.72-1.58a41.35,41.35,0,0,0-3.68-2.92,45,45,0,0,0-8.25-4.46A46.67,46.67,0,0,0,169.12,412.91Z"/><path class="cls-20" d="M191.67,354.91l8.79,27.66q15.33,32.51,30.65,65L305,508.07l-36.27-84.92Z"/><path class="cls-21" d="M290.25,483.07c-.35-.1-5.87,18.55-12.08,38.72-.58,1.87-1.48,4.63-3.28,10.13-3,9.11-3.61,10.78-4.08,11.62l-.21.34c-1.88,3.07-2.39,4.38-3.06,5.47-1.74,2.8-3.3,2-4.89,4.45a9.5,9.5,0,0,0-1.23,6.49,5.74,5.74,0,0,0,2.62,3.86c1.29.68,2.58.51,4.67.22a5.93,5.93,0,0,0,2.84-.8,5.36,5.36,0,0,0,2-3.65c.31-2.39-.92-3.88-1.61-5.68-1.32-3.49-.07-6.86,1.46-11.16,2.37-6.69,4.29-13.54,6.55-20.27,1.85-5.5,3.49-12,6.77-24.94C288.26,491.94,290.49,483.13,290.25,483.07Z"/><path class="cls-21" d="M270.75,560.72c.9,1.41-1.51,2.88-1.24,6.49.17,2.23,1.15,2.58,1.61,5.69.3,2.07.57,3.65-.22,4.67-2.42,3.12-12.28.88-13-2.48-.41-2,2.74-2.71,4.08-7.29,1-3.39-.17-4.92,1.24-6.49C265.18,559.14,269.7,559.09,270.75,560.72Z"/><path class="cls-25" d="M554.49,669.5c-32.44-22.74-15.58-58.65-41-151-11.55-42-22.37-62.89-15.5-67.5,8.8-5.88,40.28,19.15,60,48,47.64,69.71,26.55,161.53,24.5,161.5s18.08-98.12-16-231c-12.86-50.14-27.73-82.94-18.5-88.5,11.87-7.13,55.47,35.59,81.5,82.5,10.41,18.76,38.13,70.35,30,136-6.63,53.55-35.87,109-48,106C593,661,587.25,514,667,428c27.42-29.55,65.39-52.38,74-45,6.75,5.79-7.41,27.6-28,91-6.56,20.22-11.73,36.15-16.5,56.5-15.86,67.78-2.09,85.88-23,114-8.28,11.15-25.56,34.39-56,40C585.53,690.41,559.6,673.09,554.49,669.5Z"/><path class="cls-26" d="M567.49,358.5c5.44,9.54,10.34,19.37,14.89,29.37s8.5,20.27,12.14,30.65a370.26,370.26,0,0,1,15.9,64,344.41,344.41,0,0,1,4.15,65.81c-.44,11-1.4,22-2.87,32.85a324,324,0,0,1-6.21,32.33c2-10.78,3.68-21.61,4.75-32.51s1.87-21.8,2-32.73-.16-21.85-1-32.74-2.09-21.76-3.79-32.55a416.53,416.53,0,0,0-15.11-63.72c-3.35-10.41-7.09-20.7-11.3-30.8-2-5.09-4.24-10.1-6.49-15.1S569.91,363.43,567.49,358.5Z"/><path class="cls-27" d="M642.49,535.5a256.46,256.46,0,0,0,20.48-37,187,187,0,0,0,12.46-40c1.46-6.89,2.72-13.89,4.44-20.87a92.8,92.8,0,0,1,7.35-20.41c.43-.81.83-1.63,1.28-2.42l1.43-2.34a47.29,47.29,0,0,1,3.1-4.5,23,23,0,0,1,1.71-2.12l1.79-2.06c1.21-1.34,2.56-2.57,3.84-3.84a61.4,61.4,0,0,1,18.12-11.41,72.87,72.87,0,0,0-16.4,13.15,63.62,63.62,0,0,0-11.35,17.24,99.2,99.2,0,0,0-6.26,19.8c-1.54,6.83-2.75,13.8-4.16,20.79a179.34,179.34,0,0,1-5.5,20.82,159.23,159.23,0,0,1-8.34,19.85A165,165,0,0,1,642.49,535.5Z"/><path class="cls-27" d="M585.89,626.72A257.33,257.33,0,0,0,572.5,586.6a187.08,187.08,0,0,0-21-36.26c-4.09-5.74-8.39-11.41-12.37-17.39a93,93,0,0,1-10.05-19.23c-.3-.86-.63-1.71-.92-2.57l-.75-2.64a48.22,48.22,0,0,1-1.22-5.32,24.76,24.76,0,0,1-.4-2.7l-.31-2.71c-.16-1.81-.15-3.63-.23-5.43a61.53,61.53,0,0,1,3.87-21.06,72.42,72.42,0,0,0-1.41,21,63.48,63.48,0,0,0,5,20,99.69,99.69,0,0,0,10.34,18c4,5.75,8.3,11.36,12.5,17.13a178.93,178.93,0,0,1,11.6,18.14,159.93,159.93,0,0,1,9,19.57A165.66,165.66,0,0,1,585.89,626.72Z"/><path class="cls-28" d="M316.34,239.44c-4-1-4.75-3.46-13.86-11.14-6-5-6.35-4.54-8.22-7-4.49-5.77-5.22-12.33-5.71-16.08s-1.23-9.41,1.5-15.38a20.93,20.93,0,0,1,7-8.38c1.29-.94,8.17-5.74,16.6-3.95,11,2.35,18.77,13.5,20.33,23.08.24,1.44-.2,5.39-1.07,13.22-2.08,18.61-3.27,21.31-5.6,23.25A12.8,12.8,0,0,1,316.34,239.44Z"/><path class="cls-9" d="M312.92,228.9c-2.2-2.13-4.21-4.41-6.19-6.73a66.49,66.49,0,0,1-5.46-7.46c-.41-.68-.81-1.38-1.18-2.15a10,10,0,0,1-.51-1.26l-.12-.34-.1-.42c0-.15-.06-.27-.08-.44s0-.38,0-.57a2.86,2.86,0,0,1,.09-.74c0-.14.06-.27.1-.41a5.31,5.31,0,0,1,.27-.53,4.2,4.2,0,0,1,.37-.49,3.68,3.68,0,0,1,.58-.44,2.68,2.68,0,0,1,1.24-.39,4.73,4.73,0,0,1,.86,0c.2,0,.36.09.54.14a3.85,3.85,0,0,1,.41.14l.35.14c.83.36,1.42.65,2,.88a7.15,7.15,0,0,0,6.54-.24,14,14,0,0,0,3-2.38l1.67-1.59a7.93,7.93,0,0,1,2.69-1.77,4.1,4.1,0,0,1,2.6,0,4.48,4.48,0,0,1,1.94,1.3A7.25,7.25,0,0,1,326,206a19,19,0,0,1,.6,5,40.54,40.54,0,0,1-1.11,9.31,29.69,29.69,0,0,1-3.42,8.58,52.48,52.48,0,0,0,1-8.9,58.55,58.55,0,0,0-.38-8.73,19.17,19.17,0,0,0-.87-3.9,3.28,3.28,0,0,0-.64-1.12c-.07-.06-.06,0,.07.06a1,1,0,0,0,.39,0s-.14.1-.33.24-.41.37-.64.59l-1.53,1.59a18.59,18.59,0,0,1-4.05,3.22,11.48,11.48,0,0,1-5.5,1.48,12.83,12.83,0,0,1-5.35-1.25c-.77-.36-1.51-.78-2.05-1.05l-.29-.14s0,0,0,0a.72.72,0,0,0,.3,0,1.64,1.64,0,0,0,.71-.23,1.35,1.35,0,0,0,.35-.28,1.71,1.71,0,0,0,.21-.26,1,1,0,0,0,.12-.29.29.29,0,0,0,.05-.13c0-.09,0-.22,0-.18h0a.89.89,0,0,0,0,.11v.14l0,.19c.05.25.17.56.26.87.21.62.49,1.27.78,1.92C307.18,218.15,310.28,223.41,312.92,228.9Z"/><path class="cls-25" d="M311,240.15c.7-1.9,4.38-.21,9.77-1.83,6.3-1.88,8.71-6.4,10.45-5.2s-.65,4.89,1.51,10.19c1.51,3.73,3.6,4.23,3.37,6.3-.32,2.93-4.79,4.55-8.1,5.75a23.08,23.08,0,0,1-4.45,1.12c-3,.5-4.53.75-5.6,0-1.86-1.21-1.06-3.63-2.74-8.12C313.25,243.15,310.4,241.82,311,240.15Z"/><path class="cls-29" d="M290.66,153.85q3.6,7.58,7.21,15.16"/><path class="cls-29" d="M315.8,151.91q-.29,8.24-.58,16.48"/><path class="cls-29" d="M341.62,169.78l-11.72,9.95"/><path class="cls-29" d="M351.44,189.27,336.36,192"/><path class="cls-29" d="M266.31,179.47l14.77,6.1"/><path class="cls-29" d="M265,204.46l15.08-2.73"/><path class="cls-29" d="M275.14,231.07l11.39-10.38"/></g></g></svg>