<svg xmlns="http://www.w3.org/2000/svg" xmlns:xlink="http://www.w3.org/1999/xlink" viewBox="0 0 717.9 636.72"><defs><style>.cls-1,.cls-12{fill:#960;}.cls-10,.cls-2{fill:#fff;}.cls-3{fill:#c93;}.cls-4{opacity:0.5;}.cls-5{fill:#ccc;}.cls-6{fill:url(#linear-gradient);}.cls-7{fill:url(#linear-gradient-2);}.cls-8{fill:#300;}.cls-9{opacity:0.82;}.cls-10{opacity:0.11;}.cls-11{fill:#f90;}.cls-12{stroke:#fff;stroke-miterlimit:10;}.cls-13{fill:url(#linear-gradient-3);}.cls-14{fill:url(#linear-gradient-4);}</style><linearGradient id="linear-gradient" x1="226.04" y1="-93.67" x2="286.04" y2="-93.67" gradientTransform="matrix(0.38, -0.93, 0.93, 0.38, 246.22, 475.73)" gradientUnits="userSpaceOnUse"><stop offset="0" stop-color="#600"/><stop offset="0.27" stop-color="#5d0000"/><stop offset="0.72" stop-color="#430000"/><stop offset="0.96" stop-color="#300"/></linearGradient><linearGradient id="linear-gradient-2" x1="86.87" y1="-64.18" x2="146.87" y2="-64.18" gradientTransform="matrix(0.49, -0.87, 0.87, 0.49, 148.03, 286.13)" xlink:href="#linear-gradient"/><linearGradient id="linear-gradient-3" x1="569.27" y1="702.21" x2="631.48" y2="702.21" gradientTransform="matrix(-0.33, -0.86, -0.8, 0.35, 1245.22, 487.02)" xlink:href="#linear-gradient"/><linearGradient id="linear-gradient-4" x1="526.88" y1="677.41" x2="589.11" y2="677.41" gradientTransform="matrix(-0.42, -0.81, -0.75, 0.46, 1330.05, 310.98)" xlink:href="#linear-gradient"/></defs><g id="Layer_2" data-name="Layer 2"><g id="Layer_1-2" data-name="Layer 1"><path class="cls-1" d="M330.07,414.26c2.74,70.15-48.88,120.12-59.83,130.18-13.1,12-45.55,41.87-94.74,44.69-58.27,3.33-99.21-33.58-115.18-48C47.58,529.67,8.1,494.08,1.12,440.54-8.84,364.26,48.31,260.21,151.58,252,252.92,243.87,326.92,333.8,330.07,414.26Z"/><path class="cls-1" d="M163.07,265.17a87.29,87.29,0,0,1-34,4.89c-27.62-1.82-44.31-18.09-50.72-25.28"/><path class="cls-1" d="M231.38,324.31c-2.71,4.45-42.91-8.65-64.45-40.72-3.35-5-8-11.95-6.42-13.56C165.7,264.8,235.33,317.84,231.38,324.31Z"/><path class="cls-1" d="M347.58,259.35C330,300.2,285.94,330.52,246.52,327.76c-28.3-2-30.38-19.33-86.42-48.1S90,260,69.93,238.15C43.13,209.08,33.35,155.26,56,112.28,84.49,58.38,150.26,47.55,189,55.09c18.23,3.55,33.78,11.72,64.68,27.94,28.69,15.06,43.78,23,57.17,35.4C339.66,145.17,371.56,203.79,347.58,259.35Z"/><ellipse class="cls-2" cx="260.26" cy="204.18" rx="58.5" ry="60.5" transform="translate(-39.26 344.59) rotate(-63.23)"/><path class="cls-3" d="M328.77,242.66c-27,56.87-114.59,55.49-142.2,39.12-2.32-1.37-11.42-7.14-25.59-15.11-18.27-10.28-31.33-16.55-34.15-18C98.22,234,52.39,166.93,80.56,117.46c17.65-31,60.43-48.26,90.92-38.87,25.83,8,24.5,29.42,56.34,43.24,33.67,14.61,50.34-2.79,73.59,10.49C331.52,149.53,347.26,203.7,328.77,242.66Z"/><path class="cls-2" d="M143.91,203.18a51,51,0,0,1-23.16-5.53A51.51,51.51,0,0,1,144,100.16a51.51,51.51,0,0,1-.08,103Z"/><path d="M144,99.66v1h0a50.42,50.42,0,0,1,22.93,5.48,51,51,0,0,1-23,96.54A50.51,50.51,0,0,1,121,197.21a51,51,0,0,1,23-96.55v-1m0,0a52,52,0,1,0,23.38,5.58A52,52,0,0,0,144,99.66Z"/><g class="cls-4"><path class="cls-2" d="M272.15,275c-13.14,0-26-2.85-36.26-8-27.26-13.76-39.23-45.29-40.5-48.84a87.41,87.41,0,0,1-3.79-14.2l-.15-.85-.66.56a67.18,67.18,0,0,1-13.51,8.79,73.41,73.41,0,0,1-32,7.11,78.64,78.64,0,0,1-36.63-8.92c-15-8.05-28.52-22.67-36.14-39.1-8.52-18.37-8.92-37-1.11-52.49C81.81,98.33,104.28,85.5,130,85.5a82.93,82.93,0,0,1,37.15,9c8.07,4.07,23.33,18.42,31.24,27.22,4.1,4.57,7.93,9.48,8,9.53,3.16,4.07,6.17,8.33,8.94,12.66l.18.27.32,0c4.52-.66,9.13-1.13,13.69-1.41,0,0,4.54-.28,10.52-.28,3.32,0,6.45.09,9.3.26,5,.29,30.94,2.12,44.65,9,37.17,18.75,54.38,59.83,38.36,91.59-10,19.79-32.49,31.6-60.2,31.6Z"/><path d="M130,86A82.53,82.53,0,0,1,167,95c8,4,23.2,18.34,31.08,27.1,4.08,4.54,7.8,9.31,8,9.51,3.15,4.06,6.15,8.3,8.92,12.62l.35.54.64-.09c4.51-.65,9.1-1.12,13.65-1.4.19,0,4.6-.28,10.49-.28,3.31,0,6.43.09,9.28.26,5,.29,30.82,2.11,44.44,9,36.93,18.63,54,59.41,38.14,90.92-5.19,10.3-13.59,18.31-24.94,23.82a80.38,80.38,0,0,1-34.81,7.51c-13.06,0-25.86-2.83-36-8-27.09-13.67-39-45-40.25-48.55a87.57,87.57,0,0,1-3.77-14.13l-.3-1.69-1.33,1.1a65.87,65.87,0,0,1-13.4,8.73A72.84,72.84,0,0,1,145.27,219a78.14,78.14,0,0,1-36.39-8.86C94,202.14,80.53,187.6,73,171.27,64.5,153,64.1,134.55,71.84,119.22,82.17,98.72,104.47,86,130,86m0-1c-25.14,0-48.16,12.1-59.09,33.77C53.73,152.88,78.6,195,108.41,211a78.81,78.81,0,0,0,36.86,9,73.46,73.46,0,0,0,32.22-7.17A66.61,66.61,0,0,0,191.11,204a87.32,87.32,0,0,0,3.81,14.28c1,2.77,13.08,35.15,40.74,49.12,10.37,5.23,23.32,8.07,36.49,8.07,24.33,0,49.45-9.68,60.64-31.88,16.17-32-1.1-73.36-38.58-92.26-12.25-6.18-34.36-8.48-44.84-9.09-3.22-.19-6.44-.26-9.33-.26-6,0-10.55.28-10.55.28-5.36.33-10,.87-13.74,1.41-2.32-3.62-5.29-8-9-12.69,0,0-3.82-4.93-8-9.57-8.09-9-23.32-23.26-31.38-27.33A83.19,83.19,0,0,0,130,85Z"/></g><path class="cls-2" d="M255.53,255a51.51,51.51,0,1,1,23.23-97.5A51.51,51.51,0,0,1,255.53,255Z"/><path d="M255.61,151.49v1h0a51,51,0,1,1-23,96.54,51,51,0,0,1,23-96.54v-1m0,0A52,52,0,1,0,279,157.07a52,52,0,0,0-23.38-5.58Z"/><path class="cls-5" d="M255.54,239a35.09,35.09,0,0,1-16-3.81,35.5,35.5,0,0,1,16-67.2,35.16,35.16,0,0,1,16,3.81,35.51,35.51,0,0,1-16,67.2Z"/><path d="M255.6,167.49v1h0a35,35,0,1,1-31.28,19.24,34.55,34.55,0,0,1,31.28-19.24v-1m0,0a36,36,0,1,0,16.18,3.86,36,36,0,0,0-16.18-3.86Z"/><path class="cls-5" d="M150.18,188.1a35.1,35.1,0,0,1-16-3.82,35.5,35.5,0,0,1,16-67.2,35.51,35.51,0,0,1,0,71Z"/><path d="M150.24,116.58v1h0a35,35,0,1,1-15.8,66.26,35,35,0,0,1,15.79-66.26v-1m0,0a36,36,0,1,0,16.19,3.87,36,36,0,0,0-16.19-3.87Z"/><path class="cls-6" d="M256.23,233.28A30,30,0,1,1,284,214.61,29.87,29.87,0,0,1,256.23,233.28Z"/><path d="M256.25,173.77h0a29.52,29.52,0,1,1-27.32,18.36,29.48,29.48,0,0,1,27.32-18.36m0-1A30.52,30.52,0,1,0,267.76,175a30.5,30.5,0,0,0-11.51-2.27Z"/><path class="cls-7" d="M149.5,182.81a30,30,0,1,1,26.16-15.27A30,30,0,0,1,149.5,182.81Z"/><path d="M149.56,122.3v1h0a29.51,29.51,0,1,1-25.72,15,29.53,29.53,0,0,1,25.72-15v-1m0,0a30.52,30.52,0,1,0,14.95,3.94,30.48,30.48,0,0,0-14.95-3.94Z"/><path d="M255.55,220a16.5,16.5,0,1,1,14.75-9.07A16.37,16.37,0,0,1,255.55,220Z"/><path class="cls-8" d="M255.58,186.49v1h0a15.83,15.83,0,0,1,7.19,1.72,16,16,0,0,1-7.22,30.29,15.83,15.83,0,0,1-7.19-1.72,16,16,0,0,1,7.22-30.29v-1m0,0a17,17,0,1,0,7.64,1.83,17,17,0,0,0-7.64-1.83Z"/><path d="M150.2,166.85a16.5,16.5,0,1,1,14.74-9.07A16.28,16.28,0,0,1,150.2,166.85Z"/><path class="cls-8" d="M150.23,133.35v1h0a16,16,0,1,1-14.3,8.8,15.83,15.83,0,0,1,14.3-8.8v-1m0,0a17,17,0,1,0,7.64,1.82,17,17,0,0,0-7.64-1.82Z"/><path class="cls-2" d="M158.08,144.85a8.91,8.91,0,0,1-4-1,9,9,0,0,1,4.06-17,9,9,0,0,1,0,18Z"/><path class="cls-8" d="M158.1,127.34h0a8.37,8.37,0,0,1,3.82.92,8.5,8.5,0,0,1-3.84,16.09A8.51,8.51,0,0,1,150.5,132a8.47,8.47,0,0,1,7.6-4.68m0-1a9.5,9.5,0,1,0,4.27,1,9.49,9.49,0,0,0-4.27-1Z"/><path class="cls-2" d="M263.45,193.52a8.91,8.91,0,0,1-4-1,9,9,0,0,1,4.06-17,8.9,8.9,0,0,1,4,1,9,9,0,0,1-4.06,17Z"/><path class="cls-8" d="M263.47,176h0a8.49,8.49,0,0,1,8.06,5.84,8.5,8.5,0,1,1-8.06-5.84m0-1a9.5,9.5,0,1,0,4.27,1,9.34,9.34,0,0,0-4.27-1Z"/><path class="cls-2" d="M139.16,181.58a6,6,0,0,1-5.35-8.7,6,6,0,0,1,5.36-3.3,6,6,0,0,1,5.35,8.7A6,6,0,0,1,139.16,181.58Z"/><path class="cls-8" d="M139.17,170.08h0a5.45,5.45,0,0,1,2.47.59,5.5,5.5,0,1,1-4.95,9.82,5.5,5.5,0,0,1,2.48-10.41m0-1a6.5,6.5,0,0,0-2.93,12.3,6.4,6.4,0,0,0,2.92.7,6.5,6.5,0,0,0,2.93-12.3,6.37,6.37,0,0,0-2.92-.7Z"/><path class="cls-2" d="M249.47,224.91a6,6,0,1,1,5.36-3.3A5.94,5.94,0,0,1,249.47,224.91Z"/><path class="cls-8" d="M249.48,213.4h0a5.51,5.51,0,0,1,0,11,5.36,5.36,0,0,1-2.47-.6,5.5,5.5,0,0,1,2.48-10.41m0-1a6.51,6.51,0,1,0,2.92.7,6.49,6.49,0,0,0-2.92-.7Z"/><g class="cls-9"><path class="cls-10" d="M232.46,227.91c6.75,4.45,14,9,22.4,9,11.47,0,20.38-8.21,28.15-15.64.14-.14-1.39-.49-1.33-.48-.28-.06-1.12-.37-1.4-.11-5.58,5.12-11.68,10.77-19.18,12.78-6.6,1.77-12.55,1.15-19.11-2a78.78,78.78,0,0,1-10-6.1c-.35-.24-.08.73-.09.71C232,226.42,232.09,227.67,232.46,227.91Z"/><path class="cls-10" d="M232.39,230c6.81,4.48,14.11,9,22.56,9,11.69-.08,20.66-8.47,28.52-16.1.17-.17-.84-1-1.09-.72a101.58,101.58,0,0,1-9.06,7.91,35.43,35.43,0,0,1-10.86,5.79A27.4,27.4,0,0,1,242.31,234a77.22,77.22,0,0,1-10.14-6.1C231.94,227.75,232,229.74,232.39,230Z"/><path class="cls-10" d="M232,226.32c7.84,5.18,16.3,10.31,26.1,8.7,9.4-1.56,16.79-8.34,23.51-14.57,0,0-3.22-.84-3.18-.83-.4-.08-2.77-.85-3.26-.45-6,4.85-12.65,10-20.68,10.59-9,.69-16.89-4.67-23.89-9.67a1,1,0,0,0,0,.69c.16.83.33,1.65.52,2.47C231.18,223.75,231.38,225.94,232,226.32Z"/><path class="cls-10" d="M231.83,227.56c7.88,5.19,16.38,10.29,26.22,8.59,9.47-1.64,16.86-8.55,23.6-14.88a17.8,17.8,0,0,0-2.31-.85c-.29-.08-2-.8-2.42-.49-6.25,5.27-13.17,10.83-21.66,11.6-9.19.84-17.18-4.39-24.34-9.46,0,0,.27,2.78.27,2.78C231.26,225.27,231.33,227.23,231.83,227.56Z"/><path class="cls-10" d="M232.57,227.84c5.6,3.65,11.43,7.4,18.15,8.52a24.76,24.76,0,0,0,12.45-1.1c7.93-2.92,14.07-8.57,20.06-14.35.25-.23-1.61-.68-1.87-.42q-2.76,2.7-5.68,5.24-14.34,13.13-29.51,8.06c-5-1.66-9.46-4.59-13.84-7.49C232.08,226.14,232.28,227.65,232.57,227.84Z"/><path class="cls-10" d="M231.87,226c7.83,5.2,16.28,10.32,26.1,8.71,9.43-1.54,16.84-8.34,23.58-14.6,0,0-2.65-.55-2.61-.54-.41-.06-2.22-.55-2.67-.17-6.13,5.13-12.91,10.56-21.21,11.31-9.15.83-17.12-4.48-24.25-9.5l.34,2.44C231.25,224.12,231.38,225.71,231.87,226Z"/><path class="cls-10" d="M232.06,228.43c7.9,5.21,16.43,10.33,26.3,8.56,9.49-1.7,16.87-8.69,23.6-15.06a18.08,18.08,0,0,0-2.46-1.12c-.23-.08-2.22-1.06-2.59-.76-6.26,5.24-13.18,10.78-21.64,11.54-9.2.83-17.18-4.4-24.33-9.49.06,0,.37,3.16.38,3.2C231.4,225.75,231.51,228.06,232.06,228.43Z"/><path class="cls-10" d="M232,227.16c4.46,2.89,9,5.87,14.14,7.5a25.73,25.73,0,0,0,14.52.4c8.8-2.32,15.61-8.74,22-14.92.25-.24-1.37-.52-1.61-.28-7.89,7.65-16.94,16-29.15,14.76-7.47-.76-13.78-4.66-20-8.65C231.62,225.78,231.75,227,232,227.16Z"/><path class="cls-10" d="M232.09,227.24c7.87,5.18,16.36,10.31,26.19,8.62,9.42-1.63,16.76-8.5,23.47-14.78.05-.05-3.35-1.2-3.29-1.18-.31-.09-2.94-1.18-3.4-.81-6,4.86-12.61,10-20.62,10.64-9,.7-16.89-4.66-23.89-9.66a1.23,1.23,0,0,0,0,.78c.17,1,.36,1.9.57,2.84C231.25,224.21,231.47,226.83,232.09,227.24Z"/><path class="cls-10" d="M231.83,227c6.7,4.38,13.83,8.9,22.15,8.92,11.36,0,20.21-8,27.94-15.34.12-.11-1.66-.43-1.59-.42-.34,0-1.33-.34-1.65,0-5.47,4.9-11.46,10.29-18.78,12.11a24,24,0,0,1-11.39.3c-6.31-1.51-11.85-5-17.16-8.65-.35-.24-.08,1.07-.06,1.19C231.37,225.51,231.38,226.69,231.83,227Z"/><path class="cls-10" d="M232.37,227.32c5.12,3.16,10.32,6.39,16.24,7.81a24.93,24.93,0,0,0,14.53-.7c7.87-3,14-8.66,19.94-14.45.25-.24-1.29-.5-1.53-.27-2.27,2.23-4.55,4.42-7,6.48a19.07,19.07,0,0,1-10.75,5,15.27,15.27,0,0,1-13.39,3.37c-6.61-1.25-12.41-4.73-18.12-8.14C232,226.25,232.16,227.19,232.37,227.32Z"/><path class="cls-10" d="M231.85,227.81c7.88,5.19,16.39,10.31,26.24,8.55,9.41-1.68,16.75-8.6,23.44-14.92a27.34,27.34,0,0,0-2.74-1.19c-.24-.08-2.48-1.15-2.87-.83-6.09,5-12.84,10.41-21.05,11.12-9.12.79-17-4.51-24.12-9.53.07.05.36,3.39.36,3.43C231.19,224.89,231.28,227.43,231.85,227.81Z"/></g><g class="cls-9"><path class="cls-10" d="M118.69,143.6c-1.25,8-2.36,16.48,1.15,24.11,4.79,10.4,15.91,15.1,25.89,19,.29.12,0-2.13-.43-2.29a92.14,92.14,0,0,1-10.64-4.89,34.06,34.06,0,0,1-9.28-7.2,27.71,27.71,0,0,1-6.24-18.32,78.73,78.73,0,0,1,1.34-11.65C120.52,142.18,118.76,143.14,118.69,143.6Z"/><path class="cls-10" d="M118,145.56c-1.32,9.5-2.27,19.49,3.52,27.78s15.39,12.06,24.34,15.54c.08,0,.28-1.61-.16-1.78a107.51,107.51,0,0,1-10.84-4.75c-3.35-1.78-7.34-4.2-9.84-7.12l-6-10.55a29.64,29.64,0,0,1-1-8.06,93.11,93.11,0,0,1,1.06-11.9C119.09,144.43,118,145.24,118,145.56Z"/><path class="cls-10" d="M119.35,142.54c-1.44,9.27-2.59,19.09,3,27.31,5.33,7.84,14.55,11.69,23,15.19.07,0-.39-3.12-.38-3.07-.07-.34-.24-2.74-.76-3-6.88-3.44-14.31-7.34-18.2-14.35-4.39-7.91-2.79-17.25-1.16-25.67,0,.06-2.82,1.62-2.84,1.63C121.62,140.83,119.45,141.89,119.35,142.54Z"/><path class="cls-10" d="M118.65,143.54c-1.44,9.33-2.55,19.19,3.09,27.44,5.43,8,14.81,11.82,23.39,15.32a23.61,23.61,0,0,0-.25-2.68c0-.3-.16-2.4-.63-2.62-7.37-3.48-15.3-7.43-19.53-14.81-4.6-8-3.15-17.46-1.52-26.08,0,0-2.36,1.54-2.38,1.56C120.43,142,118.75,142.9,118.65,143.54Z"/><path class="cls-10" d="M118.32,143.34c-1.18,8-2.27,16.59,1.31,24.23,4.9,10.49,16.18,15.16,26.29,19.11.39.16.2-1.22,0-1.32-4.89-1.91-10-3.91-14.37-6.8-3.24-2.11-6.83-5-8.87-8.4l-3.36-7.48a30.06,30.06,0,0,1-.93-8.12,89.21,89.21,0,0,1,1.18-11.86C119.59,142.35,118.36,143,118.32,143.34Z"/><path class="cls-10" d="M119.16,142.24c-1.47,9.29-2.59,19.1,3,27.33,5.35,7.86,14.58,11.73,23,15.23a18.82,18.82,0,0,0-.25-2.38c-.06-.32-.18-2.1-.63-2.31-7.18-3.48-14.93-7.41-19-14.63-4.53-8-3-17.37-1.43-25.92,0,0-2.48,1.2-2.45,1.18C121.1,140.92,119.24,141.7,119.16,142.24Z"/><path class="cls-10" d="M118.79,144.24c-1.44,9.36-2.55,19.25,3.08,27.53,5.45,8,14.88,11.89,23.51,15.39.08,0-.37-3.12-.36-3.06-.05-.31-.22-2.75-.72-3-7.38-3.45-15.32-7.36-19.57-14.71-4.63-8-3.17-17.51-1.54-26.14a.84.84,0,0,0-.56.3c-.6.51-1.19,1-1.77,1.55C120.44,142.5,118.9,143.53,118.79,144.24Z"/><path class="cls-10" d="M118,142.41c-1.22,8-2.33,16.5,1.14,24.14,4.81,10.61,16.05,15.37,26.2,19.39.4.15.32-1,.11-1.09-7-2.82-13.86-5.81-19.33-11.17s-7.9-11.86-7.74-20.28a82.92,82.92,0,0,1,1.3-11.64C119.73,141.39,118,142.08,118,142.41Z"/><path class="cls-10" d="M119.29,143.23c-1.44,9.31-2.58,19.16,3,27.41,5.36,7.92,14.66,11.78,23.16,15.29,0,0-.45-3.55-.44-3.5-.07-.35-.27-3.15-.82-3.42-6.92-3.44-14.36-7.32-18.25-14.36-4.39-8-2.78-17.32-1.14-25.77a1.11,1.11,0,0,0-.67.34c-.75.55-1.48,1.11-2.21,1.69C121.5,141.25,119.41,142.49,119.29,143.23Z"/><path class="cls-10" d="M118.41,142.81c-1.4,9.35-2.48,19.19,3.14,27.45,5.46,8,14.87,11.94,23.51,15.45.19.08-.11-1.62-.1-1.56-.05-.29-.11-1.33-.48-1.5-7.86-3.54-16.25-7.58-20.81-15.33-4.77-8.11-3.48-17.68-1.92-26.5a13.6,13.6,0,0,0-1.77.84C119.69,141.83,118.48,142.35,118.41,142.81Z"/><path class="cls-10" d="M118,142.44c-1.15,8.07-2.28,16.66,1.32,24.31,4.94,10.48,16.29,15.16,26.4,19.12.38.15.33-.81.13-.89-8.11-3.19-16.66-6.71-22.24-13.73-4-5-5.65-10.21-5.58-17.23a92.86,92.86,0,0,1,1.16-12C119.23,141.64,118,142.18,118,142.44Z"/><path class="cls-10" d="M118.78,143.77c-1.44,9.34-2.57,19.23,3.07,27.49,5.43,7.94,14.8,11.78,23.37,15.26.07,0-.28-3.38-.27-3.31,0-.3-.14-3-.65-3.26-7.13-3.44-14.82-7.33-18.89-14.5-4.52-8-3-17.43-1.35-26a1.12,1.12,0,0,0-.65.34c-.71.54-1.42,1.09-2.11,1.66C120.87,141.83,118.9,143,118.78,143.77Z"/></g><path class="cls-11" d="M166.45,223.36c1.31-.27,28.07-5.47,26.71,9.21-.21,2.31-1.21,5.72-13.78,25.1-15.57,24-23.36,36-26.9,35.58-5.69-.74-1.71-25.05,2.9-41.28A173,173,0,0,1,166.45,223.36Z"/><path class="cls-12" d="M179,55.47c.8-1.43-2.33-7.16-8.56-18.54-2.1-3.83-4-7.2-4.41-7.94-1.47-2.62-2.7-4.79-3.55-6.28A27.21,27.21,0,0,0,158,29.85a28.52,28.52,0,0,0-1.8,6.18c-.36,2.25-2.05,13,4.77,18.77C166.71,59.58,176.89,59.28,179,55.47Z"/><path class="cls-12" d="M315.41,122.62c.82-1.76,6.59-3.77,18.06-7.74,3.87-1.33,7.28-2.47,8-2.73,2.65-.88,4.85-1.6,6.37-2.09a47.47,47.47,0,0,1-3.93,9.16,49.61,49.61,0,0,1-4.2,6.27c-1.65,2.05-9.58,11.87-16.78,10.94C317,135.65,313.22,127.32,315.41,122.62Z"/><path class="cls-12" d="M324.93,141.51c2.2-4.84,10.43-3.31,24.68-7A100.92,100.92,0,0,0,378.18,122,71.64,71.64,0,0,1,360,148.35c-6.57,5.91-14.17,12.75-22.4,11.06C328.91,157.63,322.45,147,324.93,141.51Z"/><path class="cls-12" d="M157.25,54.25c2.44-4.36-3.93-10-9.94-23.32a97.38,97.38,0,0,1-8-29.43,62.64,62.64,0,0,0-9.47,28.71c-.57,8.42-1.22,18.15,5.28,23.75C142,59.87,154.49,59.17,157.25,54.25Z"/><ellipse class="cls-3" cx="164.08" cy="421" rx="106" ry="117.5" transform="translate(-33.01 14.4) rotate(-4.57)"/><path class="cls-11" d="M74.89,580.69c-5.15,10-3.43,20.39-2.15,28.15,1.58,9.5,5.86,21.48,9.23,21.16,2-.18,2.69-4.55,7.83-26.9,3.29-14.25,4.44-18.75,5.33-18.67,1.39.14,1.88,11.14,1.83,17.73,0,5.41-.46,9.83,1.1,16.1.84,3.37,1.76,7.07,3.5,7.27,1.21.14,3.15-1.39,9.13-16.79,5.84-15,6.87-21,8.8-20.89,2.21.1,4.43,8,4.15,15.49-.41,11-6,16.94-4.38,18.35,1.9,1.6,12.21-3.53,15.78-12.69,3.25-8.32-.37-16.63-4.81-26.87-4.88-11.26-7.33-16.89-13-19.89C104.41,555.5,82.8,565.24,74.89,580.69Z"/><path class="cls-11" d="M191.79,587.4c-5.14,10-3.43,20.39-2.14,28.15,1.57,9.5,5.86,21.48,9.22,21.16,2-.18,2.7-4.55,7.84-26.89,3.28-14.26,4.44-18.76,5.33-18.67,1.38.13,1.88,11.13,1.83,17.72,0,5.41-.46,9.83,1.1,16.1.84,3.38,1.76,7.07,3.5,7.27,1.21.14,3.14-1.39,9.13-16.78,5.83-15,6.86-21,8.8-20.9,2.2.1,4.43,8,4.15,15.49-.41,11-6.06,16.94-4.38,18.35,1.9,1.6,12.2-3.53,15.78-12.69,3.24-8.32-.38-16.63-4.82-26.87-4.88-11.26-7.32-16.89-13-19.89C221.32,562.21,199.71,572,191.79,587.4Z"/><path class="cls-1" d="M421.16,420.46c-2.47,67.57,43.94,115.7,53.78,125.38,11.79,11.61,41,40.33,85.18,43,52.39,3.21,89.2-32.34,103.56-46.21,11.45-11.06,46.94-45.34,53.22-96.9,9-73.47-42.43-173.68-135.27-181.63C490.51,256.35,424,343,421.16,420.46Z"/><path class="cls-1" d="M571.29,276.86a73.91,73.91,0,0,0,30.61,4.72c24.83-1.76,39.84-17.43,45.6-24.35"/><path class="cls-1" d="M509.88,333.83c2.44,4.28,38.58-8.34,57.94-39.22,3-4.81,7.21-11.51,5.78-13.06C568.93,276.51,506.33,327.6,509.88,333.83Z"/><path class="cls-1" d="M405.41,271.26c15.85,39.35,55.42,68.54,90.86,65.89,25.44-1.91,27.31-18.62,77.7-46.33s63-19,81.06-40c24.1-28,32.89-79.84,12.5-121.24C642,77.7,582.82,67.27,548,74.53c-16.39,3.42-30.37,11.28-58.15,26.91-25.79,14.5-39.35,22.13-51.39,34.09C412.53,161.29,383.85,217.75,405.41,271.26Z"/><ellipse class="cls-2" cx="483.92" cy="218.13" rx="56.93" ry="53.83" transform="translate(151.83 632.22) rotate(-75.53)"/><path class="cls-3" d="M422.32,255.19c24.26,54.77,103,53.44,127.85,37.67,2.08-1.32,10.26-6.88,23-14.55,16.43-9.9,28.18-15.94,30.71-17.33,25.72-14.17,66.93-78.73,41.59-126.38-15.86-29.84-54.32-46.48-81.73-37.44-23.23,7.67-22,28.34-50.66,41.65-30.27,14.07-45.26-2.69-66.16,10.11C419.85,165.49,405.7,217.66,422.32,255.19Z"/><path class="cls-2" d="M588.53,217.14c-17.58,0-33.42-10.44-41.33-27.25-11.5-24.42-2.31-54.3,20.47-66.62A43.26,43.26,0,0,1,588.45,118c17.58,0,33.41,10.44,41.33,27.25,11.5,24.42,2.31,54.3-20.47,66.62a43.37,43.37,0,0,1-20.78,5.31Z"/><path d="M588.45,118.46c17.38,0,33,10.33,40.88,27,11.38,24.18,2.3,53.78-20.26,66a42.78,42.78,0,0,1-20.54,5.25c-17.38,0-33-10.33-40.88-27-11.38-24.18-2.3-53.78,20.26-66a42.75,42.75,0,0,1,20.54-5.25m0-1a44.05,44.05,0,0,0-21,5.37c-23,12.46-32.31,42.58-20.68,67.28,8.22,17.46,24.69,27.53,41.78,27.53a44,44,0,0,0,21-5.37c23.06-12.46,32.32-42.58,20.69-67.28-8.22-17.46-24.69-27.53-41.78-27.53Z"/><g class="cls-4"><path class="cls-2" d="M473.23,286.27c-24.89,0-45.1-11.37-54.07-30.42-14.4-30.58,1.06-70.15,34.47-88.21,12.31-6.65,35.57-8.41,40.11-8.7,2.56-.16,5.37-.24,8.36-.24,5.32,0,9.41.26,9.45.27,4.1.26,8.24.72,12.3,1.35l.34.05.17-.29c2.5-4.17,5.2-8.27,8-12.19,0,0,3.48-4.78,7.17-9.18,7.1-8.47,20.81-22.29,28.06-26.2A70.52,70.52,0,0,1,601,103.83c23.12,0,43.3,12.36,52.66,32.24,7,14.91,6.67,32.86-1,50.56-6.84,15.82-19,29.9-32.48,37.65a66.83,66.83,0,0,1-32.89,8.58A62.16,62.16,0,0,1,558.56,226a59.92,59.92,0,0,1-12.14-8.46l-.67-.61-.15.9a90.6,90.6,0,0,1-3.41,13.68c-1.14,3.42-11.9,33.77-36.4,47C496.59,283.53,485,286.27,473.23,286.27Z"/><path d="M601,104.33c22.93,0,42.94,12.25,52.22,32,7,14.78,6.6,32.59-1,50.16-6.8,15.72-18.87,29.71-32.27,37.41a66.42,66.42,0,0,1-32.64,8.51,61.58,61.58,0,0,1-28.51-6.79,58.82,58.82,0,0,1-12-8.38L545.4,216l-.3,1.8a89.52,89.52,0,0,1-3.38,13.6c-1.14,3.4-11.84,33.58-36.16,46.74-9.14,4.94-20.61,7.66-32.33,7.66A68.05,68.05,0,0,1,442,278.55a49,49,0,0,1-22.39-22.91c-14.29-30.35,1.08-69.63,34.26-87.56,12.22-6.6,35.38-8.35,39.9-8.64,2.55-.16,5.35-.24,8.33-.24,5.33,0,9.37.26,9.41.27,4.09.26,8.22.72,12.27,1.34l.66.11.35-.58c2.49-4.16,5.18-8.25,8-12.15,0-.05,3.45-4.76,7.14-9.16,7.08-8.44,20.73-22.2,27.92-26.08A70,70,0,0,1,601,104.33m0-1a70.72,70.72,0,0,0-33.6,8.74c-7.25,3.91-20.94,17.65-28.22,26.32-3.74,4.46-7.18,9.21-7.18,9.21-3.31,4.56-6,8.74-8.07,12.23-3.35-.52-7.53-1.05-12.35-1.36,0,0-4.08-.27-9.48-.27-2.6,0-5.5.06-8.39.24-9.42.6-29.3,2.81-40.32,8.76-33.69,18.21-49.22,58-34.68,88.86,10.06,21.38,32.65,30.71,54.52,30.71,11.84,0,23.48-2.74,32.8-7.78,24.87-13.45,35.74-44.64,36.63-47.3a89.77,89.77,0,0,0,3.43-13.76,60.15,60.15,0,0,0,12.24,8.53,62.51,62.51,0,0,0,29,6.9,67.17,67.17,0,0,0,33.14-8.64c26.8-15.41,49.15-56,33.68-88.86C644.3,115,623.6,103.33,601,103.33Z"/></g><path class="cls-2" d="M488.17,267.06c-17.57,0-33.41-10.44-41.32-27.25-11.5-24.42-2.32-54.31,20.47-66.62a43.27,43.27,0,0,1,20.78-5.32c17.58,0,33.41,10.44,41.32,27.25,11.5,24.42,2.32,54.31-20.47,66.62a43.23,43.23,0,0,1-20.77,5.32Z"/><path d="M488.1,168.37c17.38,0,33,10.33,40.87,27,11.39,24.19,2.3,53.78-20.25,66a42.8,42.8,0,0,1-20.55,5.26c-17.38,0-33-10.33-40.87-27-11.39-24.19-2.3-53.78,20.26-66a42.74,42.74,0,0,1,20.54-5.26m0-1a44,44,0,0,0-21,5.38C444,185.21,434.77,215.33,446.4,240c8.22,17.46,24.69,27.54,41.77,27.54a44,44,0,0,0,21-5.38c23.06-12.46,32.32-42.58,20.69-67.27-8.22-17.46-24.69-27.54-41.78-27.54Z"/><path class="cls-5" d="M488.16,251.65c-12.11,0-23-7.2-28.47-18.78-7.93-16.84-1.6-37.44,14.11-45.92a29.82,29.82,0,0,1,14.31-3.67c12.11,0,23,7.2,28.47,18.78,7.93,16.84,1.6,37.44-14.1,45.92a29.85,29.85,0,0,1-14.31,3.67Z"/><path d="M488.11,183.78c11.91,0,22.65,7.09,28,18.5,7.81,16.59,1.58,36.9-13.89,45.26a29.36,29.36,0,0,1-14.08,3.61c-11.91,0-22.65-7.09-28-18.49-7.81-16.6-1.58-36.91,13.9-45.27a29.32,29.32,0,0,1,14.07-3.61m0-1a30.47,30.47,0,0,0-14.55,3.73c-16,8.62-22.37,29.47-14.32,46.57,5.69,12.09,17.09,19.07,28.92,19.07a30.45,30.45,0,0,0,14.55-3.73c16-8.62,22.37-29.47,14.32-46.57-5.69-12.09-17.09-19.07-28.92-19.07Z"/><path class="cls-5" d="M582.89,202.61c-12.11,0-23-7.19-28.47-18.77-7.93-16.84-1.6-37.44,14.1-45.92a29.75,29.75,0,0,1,14.32-3.67c12.11,0,23,7.2,28.47,18.78,7.92,16.83,1.6,37.43-14.11,45.92a29.81,29.81,0,0,1-14.31,3.66Z"/><path d="M582.84,134.75c11.91,0,22.65,7.09,28,18.49,7.81,16.6,1.58,36.91-13.9,45.27a29.31,29.31,0,0,1-14.07,3.6c-11.91,0-22.65-7.08-28-18.49-7.82-16.6-1.58-36.9,13.89-45.26a29.24,29.24,0,0,1,14.08-3.61m0-1a30.45,30.45,0,0,0-14.55,3.73c-16,8.62-22.37,29.47-14.32,46.57,5.69,12.09,17.09,19.06,28.92,19.06a30.46,30.46,0,0,0,14.55-3.72c16-8.62,22.37-29.48,14.32-46.57-5.69-12.09-17.09-19.07-28.92-19.07Z"/><path class="cls-13" d="M487.54,246.14c-11,0-20.77-7.06-24.93-18-5.62-14.75,1-31.64,14.76-37.66a25.27,25.27,0,0,1,10.15-2.14c11,0,20.78,7,24.93,18,5.62,14.75-1,31.65-14.76,37.66a25.24,25.24,0,0,1-10.15,2.15Z"/><path d="M487.52,188.87c10.78,0,20.38,6.92,24.47,17.64,5.52,14.5-1,31.11-14.5,37a24.6,24.6,0,0,1-9.95,2.11c-10.78,0-20.38-6.93-24.46-17.64-5.53-14.51,1-31.12,14.49-37a24.79,24.79,0,0,1,9.95-2.1m0-1a25.8,25.8,0,0,0-10.35,2.18c-14,6.13-20.75,23.28-15,38.3,4.34,11.39,14.59,18.29,25.4,18.29a25.81,25.81,0,0,0,10.35-2.19c14-6.13,20.75-23.28,15-38.3-4.34-11.38-14.58-18.28-25.4-18.28Z"/><path class="cls-14" d="M583.49,197.53A26.73,26.73,0,0,1,560,182.84c-7.3-13.88-2.71-31.53,10.24-39.35a25.48,25.48,0,0,1,13.18-3.73,26.73,26.73,0,0,1,23.47,14.69c7.31,13.88,2.72,31.53-10.23,39.36a25.57,25.57,0,0,1-13.19,3.72Z"/><path d="M583.44,140.27a26.24,26.24,0,0,1,23,14.41c7.18,13.65,2.67,31-10.05,38.7A25,25,0,0,1,583.49,197a26.23,26.23,0,0,1-23-14.42c-7.19-13.65-2.68-31,10-38.7a25.13,25.13,0,0,1,12.93-3.64m0-1A25.91,25.91,0,0,0,570,143.06c-13.19,8-17.86,25.88-10.42,40,5,9.57,14.34,14.95,23.91,14.95a25.86,25.86,0,0,0,13.45-3.8c13.19-8,17.85-25.88,10.41-40-5-9.57-14.33-14.95-23.91-14.95Z"/><path d="M488.15,233.34a14.65,14.65,0,0,1-13.21-8.71c-3.68-7.83-.74-17.4,6.55-21.34a13.8,13.8,0,0,1,6.63-1.7,14.65,14.65,0,0,1,13.21,8.71c3.68,7.83.75,17.4-6.55,21.34a13.75,13.75,0,0,1-6.63,1.7Z"/><path class="cls-8" d="M488.12,202.09a14.16,14.16,0,0,1,12.76,8.43c3.57,7.59.73,16.87-6.34,20.68a13.27,13.27,0,0,1-6.39,1.64,14.14,14.14,0,0,1-12.75-8.43c-3.58-7.59-.74-16.87,6.33-20.68a13.27,13.27,0,0,1,6.39-1.64m0-1a14.34,14.34,0,0,0-6.87,1.76c-7.53,4.07-10.56,13.92-6.76,22a15.2,15.2,0,0,0,13.66,9,14.34,14.34,0,0,0,6.87-1.76c7.54-4.07,10.56-13.92,6.76-22a15.2,15.2,0,0,0-13.66-9Z"/><path d="M582.87,182.16a14.64,14.64,0,0,1-13.21-8.72c-3.68-7.82-.74-17.4,6.55-21.34a13.8,13.8,0,0,1,6.63-1.7,14.64,14.64,0,0,1,13.21,8.72c3.68,7.82.75,17.4-6.55,21.34a13.89,13.89,0,0,1-6.63,1.7Z"/><path class="cls-8" d="M582.84,150.9a14.16,14.16,0,0,1,12.76,8.43c3.57,7.59.73,16.87-6.34,20.69a13.27,13.27,0,0,1-6.39,1.64,14.16,14.16,0,0,1-12.76-8.43c-3.57-7.59-.73-16.87,6.34-20.69a13.27,13.27,0,0,1,6.39-1.64m0-1a14.45,14.45,0,0,0-6.87,1.76c-7.53,4.07-10.56,13.92-6.76,22a15.21,15.21,0,0,0,13.66,9,14.45,14.45,0,0,0,6.87-1.76c7.54-4.07,10.56-13.92,6.76-22a15.21,15.21,0,0,0-13.66-9Z"/><path class="cls-2" d="M575.78,161a8,8,0,0,1-7.18-4.74,9,9,0,0,1,3.56-11.64,7.57,7.57,0,0,1,3.61-.92A8,8,0,0,1,583,148.4,9,9,0,0,1,579.38,160a7.5,7.5,0,0,1-3.6.92Z"/><path class="cls-8" d="M575.77,144.16a7.45,7.45,0,0,1,6.72,4.45,8.47,8.47,0,0,1-3.35,11,7,7,0,0,1-3.36.86,7.48,7.48,0,0,1-6.73-4.46,8.46,8.46,0,0,1,3.35-11,7,7,0,0,1,3.37-.86m0-1a8,8,0,0,0-3.84,1,9.46,9.46,0,0,0-3.78,12.29,8.49,8.49,0,0,0,7.63,5,8.12,8.12,0,0,0,3.84-1,9.47,9.47,0,0,0,3.78-12.29,8.49,8.49,0,0,0-7.63-5Z"/><path class="cls-2" d="M481.05,207.84a8,8,0,0,1-7.18-4.75,9,9,0,0,1,3.56-11.63,7.43,7.43,0,0,1,3.6-.93,8,8,0,0,1,7.18,4.75,9,9,0,0,1-3.56,11.64,7.53,7.53,0,0,1-3.6.92Z"/><path class="cls-8" d="M481,191a7.47,7.47,0,0,1,6.73,4.46,8.47,8.47,0,0,1-3.35,11,7,7,0,0,1-3.36.86,7.47,7.47,0,0,1-6.73-4.46,8.45,8.45,0,0,1,3.35-11A6.93,6.93,0,0,1,481,191m0-1a8,8,0,0,0-3.84,1,9.47,9.47,0,0,0-3.78,12.29,8.5,8.5,0,0,0,7.64,5,8.15,8.15,0,0,0,3.84-1,9.47,9.47,0,0,0,3.78-12.29,8.51,8.51,0,0,0-7.64-5Z"/><path class="cls-2" d="M592.79,196.34a5.3,5.3,0,0,1-4.77-3.16,6,6,0,0,1,2.37-7.75,4.94,4.94,0,0,1,2.39-.61,5.29,5.29,0,0,1,4.77,3.15,6,6,0,0,1-2.37,7.76,5,5,0,0,1-2.39.61Z"/><path class="cls-8" d="M592.78,185.32a4.81,4.81,0,0,1,4.32,2.86,5.48,5.48,0,0,1-2.16,7.11,4.52,4.52,0,0,1-2.15.55,4.81,4.81,0,0,1-4.32-2.87,5.47,5.47,0,0,1,2.16-7.1,4.44,4.44,0,0,1,2.15-.55m0-1a5.43,5.43,0,0,0-2.62.67,6.47,6.47,0,0,0-2.59,8.41,5.82,5.82,0,0,0,5.22,3.44,5.59,5.59,0,0,0,2.63-.67,6.47,6.47,0,0,0,2.58-8.41,5.8,5.8,0,0,0-5.22-3.44Z"/><path class="cls-2" d="M493.62,238.07a5.28,5.28,0,0,1-4.77-3.16,6,6,0,0,1,2.37-7.75,5,5,0,0,1,2.39-.62,5.3,5.3,0,0,1,4.77,3.16,6,6,0,0,1-2.37,7.75,5,5,0,0,1-2.39.62Z"/><path class="cls-8" d="M493.61,227a4.81,4.81,0,0,1,4.32,2.87,5.46,5.46,0,0,1-2.16,7.1,4.45,4.45,0,0,1-2.15.56,4.8,4.8,0,0,1-4.32-2.87,5.48,5.48,0,0,1,2.16-7.11,4.55,4.55,0,0,1,2.15-.55m0-1a5.48,5.48,0,0,0-2.63.68,6.46,6.46,0,0,0-2.58,8.4,5.79,5.79,0,0,0,5.22,3.45,5.51,5.51,0,0,0,2.63-.68,6.47,6.47,0,0,0,2.58-8.4,5.8,5.8,0,0,0-5.22-3.45Z"/><g class="cls-9"><path class="cls-10" d="M504.21,233.58c-3.84,2.61-7.81,5.52-12.3,6.91q-12.33,3.85-20.7-9-1.93-2.37-3.78-4.82c-.3-.38-.24.05-.23.28a3.38,3.38,0,0,0,.68,1.61c3.84,4.55,7.86,9.64,13.42,12.21,8.85,4.09,17.7-1.87,24.89-6.63C506.4,234,504.57,233.33,504.21,233.58Z"/><path class="cls-10" d="M503.28,234.91c-6.42,4.67-15.18,11.1-23.75,5.85-5.27-3.24-8.89-8.52-12.54-13.4-.14-.19-.4.11-.24.32,4.06,5.39,8.52,12.43,15.28,14.64,8,2.62,15.69-2.56,21.85-7.13C504.24,234.93,503.47,234.77,503.28,234.91Z"/><path class="cls-10" d="M504.9,233.4c-3.85,2.64-7.82,5.52-12.34,6.94q-12.33,4-21.23-8.49-2-2.35-4-4.78c-.13-.17-.18-.15-.16.07a9.42,9.42,0,0,0,.87,2.43c.38,1,.77,1.92,1.18,2.87a3.15,3.15,0,0,0,.65,1.19c5.62,4.88,11.75,9.83,19.55,10.18,8.22.36,15.6-4.58,22.25-8.79-.07,0-3.32-1-3.35-1C507.9,233.92,505.47,233,504.9,233.4Z"/><path class="cls-10" d="M504.3,234a66.38,66.38,0,0,1-9.08,5.39,12.8,12.8,0,0,1-4.69,1.87,13.19,13.19,0,0,1-7.82.06l3.56,1.15-5.9-2.13,3.7,1.81-6.21-3.31,3.34,2.19a55.77,55.77,0,0,1-14.13-13.48c-.4-.48.4,1.47.26,1.16a10.35,10.35,0,0,0,1.55,3c4.42,4.34,9.27,9.15,15.46,10.82,9.33,2.52,17.85-3.08,25.37-7.87,0,0-2.63-.52-2.68-.53C506.52,234.1,504.84,233.65,504.3,234Z"/><path class="cls-10" d="M503.91,233c-3.82,2.61-7.77,5.52-12.24,6.9q-12.3,3.8-20.54-9.13-1.9-2.38-3.74-4.83c-.24-.31-.21-.09-.29.1a3.61,3.61,0,0,0,.58,1.6c4.08,4.92,8.4,10.64,14.63,12.91,8.44,3.08,16.37-2.44,23.13-7C505.72,233.35,504.19,232.79,503.91,233Z"/><path class="cls-10" d="M504.61,233c-3.87,2.63-7.84,5.52-12.36,6.93q-12.4,4-21.19-8.69c-1.33-1.59-2.64-3.19-3.93-4.82-.49-.61.5,2,.35,1.63.37,1,.76,2,1.16,2.95a9.2,9.2,0,0,0,.68,1.5c5.44,5,11.4,10.29,19.16,10.86,8.19.61,15.55-4.38,22.15-8.58l-3-1.07C507.3,233.57,505.11,232.63,504.61,233Z"/><path class="cls-10" d="M504.54,234.64a65.4,65.4,0,0,1-9,5.54,20.91,20.91,0,0,1-9.61,2.29l2.27.26-4.87-.74,3.53,1-6.28-2,3.28,1.35-5.79-2.85,2.94,1.7-5.28-3.55,2.6,2a85.3,85.3,0,0,1-11-11.41c-.35-.42.3,1.23.18,1a8.83,8.83,0,0,0,1.31,2.44c4.25,4.26,8.77,8.89,14.64,10.82,9.5,3.13,18.39-2.7,26.1-7.65-.08.05-2.4-.26-2.49-.27C506.46,234.51,505.09,234.26,504.54,234.64Z"/><path class="cls-10" d="M503.55,232.34a76,76,0,0,1-7.35,4.74c-2.32,1.26-5.28,2.79-7.95,2.92l-13.4-5.1-2.12-2.19c-2.15-2.32-4.06-4.92-6-7.43-.33-.43.16,1.18.07.93a7.65,7.65,0,0,0,1,2.39c4,4.41,8.27,9.57,14,11.77,9,3.45,17.37-2.23,24.6-7.06.15-.1-1.43-.69-1.37-.66C504.76,232.55,503.87,232.1,503.55,232.34Z"/><path class="cls-10" d="M505.06,234a87.85,87.85,0,0,1-7.58,4.79,14.51,14.51,0,0,1-4.67,1.88,13.5,13.5,0,0,1-12.12-.31l4.18,2a54.91,54.91,0,0,1-17.33-14.49c-.48-.59.53,1.9.37,1.52.39.92.78,1.83,1.19,2.73a7.78,7.78,0,0,0,.7,1.38c6.05,5.25,12.66,10.49,21.11,10.19,7.74-.27,14.49-4.79,20.83-8.81a1.09,1.09,0,0,0-.68-.25c-.87-.15-1.75-.28-2.63-.4C507.88,234.23,505.67,233.61,505.06,234Z"/><path class="cls-10" d="M503.92,233.1a64,64,0,0,1-9.05,5.4c-5.4,2.57-8.75,3.34-15.27.71l1.92,1.08a36.25,36.25,0,0,1-10.61-8.86c-1.39-1.67-2.76-3.37-4.09-5.1-.39-.48.31,1.43.19,1.13a9.81,9.81,0,0,0,1.37,2.95c4.65,4.83,9.6,10,16.36,11.63,8.69,2.07,16.65-3.37,23.58-7.85.06,0-2.18-.74-2.15-.73C505.8,233.37,504.36,232.8,503.92,233.1Z"/><path class="cls-10" d="M503.82,232.1a63.71,63.71,0,0,1-9.09,5.59l-3.17,1.3a9.35,9.35,0,0,1-7.51,0,7.91,7.91,0,0,1-6.66-2.58,19.35,19.35,0,0,1-4.45-4c-2.09-2.38-4-4.9-5.91-7.41-.32-.41.07,1.07,0,.83a6.07,6.07,0,0,0,.85,2.16c3.75,4.27,8,9.62,13.51,11.79a16.21,16.21,0,0,0,9.16,1c5.61-1.06,10.59-4.64,15.26-7.72C506.09,232.85,504.14,231.88,503.82,232.1Z"/><path class="cls-10" d="M504.58,234.34a66.72,66.72,0,0,1-9.1,5.41,12.78,12.78,0,0,1-4.67,1.87,13.23,13.23,0,0,1-7.81.1l4,1.16-6.32-2.11,4.21,1.86-6.72-3.33,3.81,2.31a52.79,52.79,0,0,1-14.76-13.47c-.43-.51.49,1.6.34,1.26.45,1,.94,2.56,1.75,3.31,1.59,1.46,3.17,2.94,4.83,4.31a33.53,33.53,0,0,0,6.85,4.23,26.4,26.4,0,0,0,4.22,1.78c9.18,2.59,18.21-3.52,25.54-8.21a.94.94,0,0,0-.64-.2c-.81-.09-1.62-.17-2.44-.23C507.1,234.35,505.2,233.92,504.58,234.34Z"/></g><g class="cls-9"><path class="cls-10" d="M603.06,161.34a70.69,70.69,0,0,1,.88,13.07q-.15,13-16.55,18.88c-1.91.62-3.82,1.22-5.75,1.78-.26.08-.24.23,0,.3a3.51,3.51,0,0,0,1.61-.06c5.58-1.91,12-3.9,16.3-8.3,7.24-7.51,6-17.89,4.89-27.43,0-.4-.55.34-.54.32C603.7,160.17,603,161,603.06,161.34Z"/><path class="cls-10" d="M602.56,163.36c.8,5.84,2,12.52.08,18.28-3.37,10-13.39,12.42-21.73,14.87-.54.16.17.35.46.26,6.59-1.94,14-3.75,18.61-9.24,6-7.15,4.69-17,3.54-25.53C603.48,161.75,602.5,163,602.56,163.36Z"/><path class="cls-10" d="M603.51,160c1,7.52,2.25,16-1.83,22.94a9.86,9.86,0,0,1-5.71,5,15.49,15.49,0,0,1-6.31,4.19c-2.36.95-4.77,1.76-7.19,2.58-.2.06-.18.09,0,.17a6.82,6.82,0,0,0,2.39.16c1,0,1.93.08,2.89.06A2.78,2.78,0,0,0,589,195c7.21-3.84,14.18-8.28,17.32-16.2,3-7.51,2-16,1.21-23.8,0,.07-2.14,2.37-2.16,2.4C605.08,157.72,603.42,159.32,603.51,160Z"/><path class="cls-10" d="M602.9,161.13c.78,5.94,1.81,12.33.15,18.23s-5.7,10.27-12.31,12.8q-4.41,1.8-9,3.21c-.65.2,1.66.16,1.3.18,1.06-.05,2.74.12,3.74-.35,7.84-3.61,15.7-7.89,18.77-16.53,2.5-7,1.43-14.92.72-22.13,0,.06-1.83,2.16-1.85,2.19C604.17,159.11,602.82,160.5,602.9,161.13Z"/><path class="cls-10" d="M602.78,161.2c.82,5.94,1.88,12.31.12,18.22Q599.84,190,587,192.82q-2.84.92-5.69,1.72c-.58.17.9.44,1.17.35,6.08-2,12.88-3.94,17.33-8.83,6.48-7.11,5.14-17.07,4-25.85C603.68,159.88,602.74,160.89,602.78,161.2Z"/><path class="cls-10" d="M603.35,159.71c.4,3.12.78,6.22.89,9.37a15.57,15.57,0,0,1-.93,7,12.45,12.45,0,0,1-2.67,8l-7.08,5.83-2.76,1.33a85.38,85.38,0,0,1-8.64,3.09c-.18.06-.18.09,0,.18a6.16,6.16,0,0,0,2.1.28c1,.09,2.74.58,3.65.13,7.7-3.82,15.3-8.33,18.25-16.94,2.41-7.05,1.39-14.88.65-22.11,0,0-1.88,1.82-1.86,1.8C604.67,158,603.28,159.15,603.35,159.71Z"/><path class="cls-10" d="M603,161.92a77.83,77.83,0,0,1,.83,11.11c-.06,7.19-1,11.09-7.68,16.86l3.58-2.62A61.7,61.7,0,0,1,582,196c-.59.2,1.57,0,1.24.08a12.67,12.67,0,0,0,3.46-.64c5.61-2.54,11.54-5.29,15.43-10.28,6.4-8.22,5.19-18.78,4.23-28.48a.9.9,0,0,0-.47.47c-.46.68-.91,1.36-1.35,2.06C604.22,159.68,602.93,161.19,603,161.92Z"/><path class="cls-10" d="M602.31,160.29a79,79,0,0,1,1,11.18,13.84,13.84,0,0,1-2,8.25,10.25,10.25,0,0,1-3.87,6.82c-4.69,3.93-10.72,5.59-16.46,7.31-.43.14.74.38.58.35a4,4,0,0,0,1.82.15c6.22-2.32,13.76-4.86,17.59-10.7,4.75-7.23,3.54-16.18,2.48-24.31C603.44,159,602.27,160,602.31,160.29Z"/><path class="cls-10" d="M603.44,160.77c.41,3.13.8,6.24.92,9.39a15.55,15.55,0,0,1-.92,7q-.16,7.68-7.05,12.08l2.66-1.82a65.57,65.57,0,0,1-16.49,7.87c-.74.25,2,.14,1.61.16,1-.06,2.05-.12,3.07-.21a8.43,8.43,0,0,0,1.59-.19c7.77-4.11,15.26-9,18.09-17.79,2.29-7.16,1.29-15,.58-22.35a1.18,1.18,0,0,0-.55.53c-.56.75-1.11,1.52-1.64,2.29C605,158.2,603.34,160,603.44,160.77Z"/><path class="cls-10" d="M602.71,160.46c.81,6,1.79,12.27.15,18.19-2.58,9.31-13,13.22-21.43,15.87-.56.18,1.28.34,1,.32a7.82,7.82,0,0,0,3,.06c6.61-2.79,13.65-5.89,17.52-12.32,4.45-7.41,3.12-16.71,2.21-24.86a12.19,12.19,0,0,0-1.35,1.25C603.55,159.23,602.65,160,602.71,160.46Z"/><path class="cls-10" d="M602.36,160.42c1.27,8.4,2.77,18.42-3.88,25.1-4.63,4.66-11.31,6.33-17.41,8.13-.38.12.55.37.44.33a2.64,2.64,0,0,0,1.39.1c6.86-2.41,14.4-4.8,18.5-11.27,4.36-6.87,3-15.44,1.8-23C603.14,159.41,602.32,160.17,602.36,160.42Z"/><path class="cls-10" d="M603,161.38c.41,3.13.81,6.25.93,9.41a15.36,15.36,0,0,1-.94,7,13,13,0,0,1-4.76,10.14l2.38-2.11c-6.65,5.56-11.41,7.47-18.55,9.85-.7.23,1.9.06,1.5.1,1.23-.11,3.15,0,4.29-.56,7.3-3.62,14.48-7.72,17.8-15.59,3.19-7.53,2.11-16,1.32-23.91a1.14,1.14,0,0,0-.53.51c-.55.73-1.09,1.47-1.61,2.23C604.49,158.88,602.89,160.63,603,161.38Z"/></g><path class="cls-11" d="M568.26,236.6c-1.18-.26-25.23-5.27-24,8.87.19,2.22,1.09,5.5,12.39,24.17,14,23.14,21,34.71,24.19,34.27,5.11-.71,1.54-24.13-2.61-39.76A173.62,173.62,0,0,0,568.26,236.6Z"/><path class="cls-12" d="M556.94,74.89C556.22,73.52,559,68,564.64,57c1.88-3.69,3.58-6.94,4-7.65,1.32-2.52,2.43-4.61,3.19-6a26.3,26.3,0,0,1,4,6.87,28.79,28.79,0,0,1,1.62,6c.32,2.17,1.84,12.57-4.29,18.08C568,78.85,558.88,78.56,556.94,74.89Z"/><path class="cls-12" d="M434.34,139.57c-.74-1.69-5.93-3.63-16.25-7.45-3.47-1.29-6.54-2.39-7.22-2.63l-5.73-2a48.19,48.19,0,0,0,3.53,8.82,47.27,47.27,0,0,0,3.79,6.05c1.48,2,8.6,11.43,15.08,10.53C433,152.12,436.31,144.1,434.34,139.57Z"/><path class="cls-12" d="M425.78,157.76c-2-4.66-9.38-3.18-22.19-6.72A88.34,88.34,0,0,1,377.9,139c5.2,13.52,12.3,21.48,16.35,25.39,5.91,5.7,12.74,12.28,20.14,10.66C422.2,173.29,428,163,425.78,157.76Z"/><path class="cls-12" d="M576.53,73.72c-2.2-4.2,3.53-9.68,8.94-22.46a99.52,99.52,0,0,0,7.17-28.34,63.16,63.16,0,0,1,8.51,27.65c.51,8.11,1.1,17.48-4.74,22.87C590.25,79.13,579,78.46,576.53,73.72Z"/><ellipse class="cls-3" cx="570.39" cy="426.96" rx="113.14" ry="95.32" transform="translate(116.75 976.36) rotate(-87.27)"/><path class="cls-11" d="M650.58,580.76c4.62,9.66,3.08,19.63,1.93,27.11-1.42,9.15-5.28,20.69-8.3,20.38-1.78-.18-2.42-4.39-7-25.91-2.95-13.72-4-18.06-4.8-18-1.24.13-1.69,10.73-1.64,17.07,0,5.22.42,9.47-1,15.51-.75,3.25-1.58,6.81-3.14,7-1.09.13-2.83-1.33-8.21-16.16-5.25-14.48-6.18-20.21-7.91-20.13-2,.1-4,7.71-3.74,14.92.37,10.57,5.45,16.32,3.94,17.67-1.7,1.54-11-3.4-14.18-12.22-2.92-8,.33-16,4.32-25.87,4.39-10.85,6.59-16.27,11.7-19.16C624,556.49,643.46,565.87,650.58,580.76Z"/><path class="cls-11" d="M545.47,587.22c4.63,9.67,3.09,19.64,1.93,27.11-1.41,9.15-5.27,20.69-8.29,20.39-1.78-.18-2.42-4.39-7.05-25.91-2.95-13.73-4-18.07-4.79-18-1.24.13-1.69,10.72-1.65,17.07,0,5.21.42,9.46-1,15.51-.76,3.24-1.59,6.8-3.15,7-1.09.14-2.83-1.33-8.2-16.16-5.25-14.48-6.18-20.21-7.92-20.12-2,.09-4,7.71-3.73,14.91.37,10.58,5.45,16.32,3.94,17.68-1.71,1.54-11-3.41-14.19-12.22-2.92-8,.34-16,4.33-25.88,4.39-10.85,6.58-16.27,11.7-19.16C518.93,563,538.36,572.33,545.47,587.22Z"/></g></g></svg>